<?xml version="1.0" encoding="utf-8"?>
<!-- Generator: Adobe Illustrator 16.0.0, SVG Export Plug-In . SVG Version: 6.00 Build 0)  -->
<!DOCTYPE svg PUBLIC "-//W3C//DTD SVG 1.1//EN" "http://www.w3.org/Graphics/SVG/1.1/DTD/svg11.dtd">
<svg version="1.1" id="Calque_1" xmlns="http://www.w3.org/2000/svg" xmlns:xlink="http://www.w3.org/1999/xlink" x="0px" y="0px"
	 width="193.5px" height="39.5px" viewBox="0 0 193.5 39.5" enable-background="new 0 0 193.5 39.5" xml:space="preserve">
<g>
	<g>
		<path fill="#0070B8" d="M6.55,29.638l-0.008,4.949l2.792,0.005c0.223,0,0.393,0.054,0.512,0.163
			c0.119,0.108,0.179,0.244,0.178,0.408c0,0.167-0.059,0.303-0.177,0.406c-0.118,0.103-0.29,0.154-0.515,0.154l-3.326-0.006
			c-0.3,0-0.516-0.067-0.646-0.2c-0.132-0.133-0.197-0.348-0.196-0.645l0.008-5.237c0-0.278,0.063-0.487,0.189-0.626
			c0.125-0.14,0.291-0.209,0.495-0.208c0.207,0,0.375,0.068,0.502,0.207C6.486,29.146,6.55,29.356,6.55,29.638z"/>
		<path fill="#0070B8" d="M14.232,35.133c-0.307,0.238-0.603,0.416-0.89,0.535c-0.286,0.118-0.607,0.178-0.962,0.177
			c-0.325-0.001-0.61-0.065-0.856-0.193c-0.245-0.13-0.435-0.304-0.567-0.523c-0.133-0.221-0.199-0.458-0.199-0.715
			c0.001-0.347,0.111-0.642,0.331-0.886s0.522-0.407,0.905-0.49c0.081-0.019,0.28-0.06,0.599-0.124s0.592-0.124,0.819-0.177
			c0.228-0.054,0.474-0.119,0.741-0.196c-0.015-0.334-0.082-0.579-0.201-0.735c-0.119-0.157-0.365-0.235-0.739-0.236
			c-0.322,0-0.563,0.044-0.727,0.134c-0.162,0.09-0.301,0.225-0.418,0.402c-0.116,0.18-0.198,0.298-0.246,0.355
			c-0.048,0.057-0.151,0.086-0.309,0.085c-0.142,0-0.265-0.046-0.369-0.138c-0.104-0.091-0.155-0.208-0.155-0.35
			c0-0.223,0.08-0.439,0.237-0.649c0.158-0.211,0.405-0.383,0.739-0.519s0.75-0.202,1.248-0.202c0.557,0.001,0.994,0.067,1.313,0.2
			c0.318,0.131,0.542,0.34,0.674,0.625c0.131,0.284,0.196,0.661,0.195,1.131c0,0.297-0.002,0.55-0.003,0.757
			c-0.002,0.207-0.005,0.438-0.008,0.69c0,0.238,0.038,0.487,0.117,0.745c0.078,0.258,0.118,0.426,0.117,0.5
			c0,0.129-0.061,0.247-0.184,0.354s-0.261,0.16-0.415,0.16c-0.13-0.001-0.258-0.063-0.385-0.185
			C14.508,35.543,14.374,35.365,14.232,35.133z M14.151,33.301c-0.186,0.068-0.456,0.139-0.81,0.215
			c-0.354,0.075-0.599,0.131-0.735,0.165c-0.136,0.035-0.266,0.105-0.39,0.209c-0.124,0.103-0.186,0.247-0.186,0.433
			c0,0.191,0.072,0.354,0.217,0.49c0.145,0.135,0.335,0.201,0.57,0.202c0.25,0,0.481-0.054,0.693-0.163s0.368-0.25,0.467-0.424
			c0.115-0.191,0.173-0.507,0.174-0.946V33.301z"/>
		<path fill="#0070B8" d="M25.315,33.603c0,0.216-0.054,0.45-0.161,0.702c-0.107,0.253-0.275,0.499-0.505,0.741
			c-0.229,0.243-0.521,0.439-0.877,0.591c-0.356,0.15-0.771,0.226-1.244,0.225c-0.359,0-0.685-0.035-0.979-0.104
			s-0.56-0.175-0.8-0.319c-0.239-0.144-0.459-0.333-0.66-0.569c-0.179-0.214-0.332-0.452-0.458-0.718
			c-0.126-0.265-0.221-0.547-0.284-0.847c-0.063-0.3-0.094-0.618-0.094-0.955c0.001-0.548,0.082-1.038,0.241-1.471
			c0.16-0.433,0.389-0.802,0.687-1.11c0.297-0.307,0.646-0.541,1.044-0.7c0.399-0.16,0.825-0.239,1.276-0.239
			c0.55,0.001,1.04,0.111,1.47,0.332c0.429,0.221,0.758,0.492,0.987,0.816c0.228,0.323,0.342,0.628,0.342,0.916
			c0,0.157-0.056,0.297-0.167,0.417c-0.112,0.121-0.247,0.181-0.404,0.181c-0.176,0-0.309-0.042-0.396-0.126
			c-0.088-0.084-0.187-0.229-0.294-0.432c-0.179-0.338-0.39-0.591-0.632-0.758c-0.243-0.168-0.542-0.251-0.897-0.252
			c-0.566-0.001-1.017,0.214-1.354,0.643c-0.336,0.429-0.504,1.04-0.506,1.831c-0.001,0.529,0.073,0.969,0.221,1.321
			c0.148,0.351,0.357,0.612,0.629,0.787c0.272,0.173,0.59,0.261,0.955,0.261c0.396,0.001,0.731-0.097,1.004-0.293
			c0.274-0.196,0.481-0.483,0.621-0.864c0.059-0.179,0.132-0.325,0.219-0.438c0.086-0.111,0.226-0.168,0.417-0.168
			c0.164,0,0.305,0.059,0.422,0.173C25.257,33.29,25.316,33.433,25.315,33.603z"/>
		<path fill="#0070B8" d="M31.397,33.302c0,0.378-0.06,0.726-0.178,1.043c-0.118,0.318-0.289,0.593-0.512,0.82
			c-0.223,0.229-0.489,0.404-0.799,0.525c-0.31,0.122-0.657,0.183-1.044,0.182c-0.383,0-0.728-0.063-1.034-0.187
			c-0.306-0.125-0.571-0.302-0.795-0.533c-0.224-0.23-0.393-0.504-0.509-0.817c-0.115-0.313-0.173-0.661-0.172-1.042
			c0-0.383,0.06-0.734,0.178-1.053s0.287-0.59,0.507-0.815c0.22-0.225,0.486-0.398,0.799-0.52c0.312-0.122,0.657-0.183,1.035-0.183
			c0.383,0.001,0.731,0.064,1.043,0.188c0.312,0.125,0.579,0.301,0.801,0.53c0.223,0.229,0.392,0.502,0.507,0.817
			C31.34,32.574,31.397,32.922,31.397,33.302z M30.126,33.299c0.001-0.516-0.112-0.918-0.339-1.205
			c-0.227-0.289-0.532-0.433-0.915-0.434c-0.248,0-0.466,0.064-0.654,0.191c-0.189,0.128-0.334,0.317-0.437,0.567
			s-0.154,0.542-0.155,0.876c0,0.331,0.049,0.62,0.149,0.868s0.244,0.438,0.431,0.569c0.187,0.131,0.407,0.197,0.661,0.197
			c0.383,0.001,0.689-0.143,0.917-0.432C30.011,34.209,30.125,33.81,30.126,33.299z"/>
		<path fill="#0070B8" d="M37.325,33.312c0,0.378-0.06,0.726-0.178,1.044c-0.118,0.317-0.289,0.592-0.512,0.82
			c-0.223,0.228-0.489,0.403-0.799,0.524c-0.31,0.122-0.657,0.183-1.044,0.182c-0.383,0-0.728-0.063-1.034-0.187
			c-0.306-0.125-0.571-0.302-0.795-0.533c-0.224-0.23-0.393-0.503-0.509-0.817c-0.115-0.313-0.173-0.661-0.172-1.042
			c0-0.383,0.06-0.734,0.178-1.053c0.118-0.317,0.287-0.59,0.507-0.815c0.22-0.225,0.486-0.398,0.799-0.52
			c0.312-0.122,0.657-0.183,1.035-0.182c0.383,0,0.731,0.063,1.043,0.187c0.312,0.125,0.579,0.301,0.801,0.531
			c0.223,0.229,0.392,0.501,0.507,0.817C37.269,32.584,37.326,32.932,37.325,33.312z M36.054,33.31
			c0.001-0.516-0.112-0.919-0.339-1.206c-0.227-0.288-0.532-0.433-0.915-0.433c-0.248-0.001-0.466,0.063-0.654,0.19
			c-0.189,0.128-0.334,0.317-0.437,0.568c-0.103,0.249-0.154,0.541-0.155,0.875c0,0.331,0.049,0.62,0.149,0.869
			c0.1,0.247,0.244,0.437,0.431,0.568c0.187,0.132,0.407,0.197,0.661,0.198c0.383,0,0.689-0.143,0.917-0.433
			C35.939,34.219,36.054,33.82,36.054,33.31z"/>
		<path fill="#0070B8" d="M39.685,31.451v0.153c0.238-0.294,0.486-0.509,0.743-0.646c0.256-0.137,0.548-0.205,0.873-0.204
			c0.39,0,0.748,0.102,1.076,0.303c0.327,0.201,0.585,0.496,0.775,0.883c0.189,0.387,0.284,0.845,0.283,1.373
			c0,0.39-0.056,0.748-0.166,1.074c-0.11,0.326-0.262,0.6-0.454,0.819c-0.192,0.222-0.419,0.392-0.681,0.51
			c-0.262,0.119-0.542,0.178-0.842,0.178c-0.362-0.001-0.666-0.074-0.911-0.22c-0.246-0.146-0.479-0.36-0.702-0.642l-0.003,1.902
			c0,0.557-0.204,0.834-0.609,0.833c-0.238-0.001-0.396-0.072-0.473-0.216c-0.077-0.145-0.115-0.354-0.115-0.629l0.009-5.465
			c0-0.24,0.053-0.421,0.159-0.54c0.105-0.119,0.249-0.178,0.432-0.178c0.179,0,0.325,0.062,0.438,0.185
			C39.629,31.047,39.685,31.223,39.685,31.451z M42.163,33.297c0-0.334-0.05-0.621-0.151-0.86c-0.102-0.24-0.243-0.425-0.424-0.554
			c-0.181-0.128-0.38-0.192-0.6-0.193c-0.35,0-0.645,0.137-0.885,0.412c-0.24,0.274-0.36,0.68-0.361,1.214
			c0,0.505,0.118,0.896,0.355,1.178c0.237,0.279,0.533,0.42,0.885,0.42c0.21,0,0.405-0.06,0.585-0.182
			c0.179-0.122,0.324-0.305,0.432-0.549S42.163,33.643,42.163,33.297z"/>
		<path fill="#0070B8" d="M48.174,33.641l-2.477-0.004c0.002,0.287,0.06,0.541,0.173,0.762c0.112,0.22,0.262,0.385,0.449,0.496
			c0.187,0.112,0.394,0.168,0.62,0.168c0.151,0.001,0.29-0.017,0.415-0.053c0.125-0.035,0.247-0.09,0.364-0.166
			c0.118-0.075,0.226-0.156,0.325-0.243c0.099-0.087,0.228-0.203,0.385-0.352c0.065-0.056,0.158-0.083,0.278-0.083
			c0.13,0.001,0.235,0.036,0.315,0.107s0.121,0.171,0.12,0.302c0,0.114-0.045,0.248-0.135,0.4c-0.09,0.153-0.226,0.301-0.407,0.44
			c-0.181,0.141-0.408,0.257-0.682,0.349c-0.274,0.093-0.588,0.139-0.944,0.138c-0.813-0.001-1.445-0.234-1.896-0.699
			c-0.451-0.465-0.675-1.094-0.674-1.889c0-0.374,0.057-0.722,0.169-1.041c0.112-0.32,0.275-0.594,0.488-0.822
			c0.214-0.229,0.477-0.403,0.79-0.526c0.312-0.121,0.659-0.181,1.04-0.181c0.495,0.001,0.918,0.106,1.272,0.314
			c0.354,0.21,0.619,0.48,0.794,0.812s0.263,0.668,0.263,1.012c0,0.318-0.092,0.524-0.274,0.619
			C48.762,33.596,48.505,33.642,48.174,33.641z M45.699,32.917l2.296,0.004c-0.03-0.433-0.147-0.756-0.349-0.972
			c-0.203-0.216-0.469-0.323-0.8-0.324c-0.315,0-0.575,0.108-0.777,0.326C45.866,32.169,45.742,32.491,45.699,32.917z
			 M47.004,28.935l0.626,0.002c0.158,0,0.237,0.023,0.236,0.07c0,0.024-0.087,0.125-0.26,0.301s-0.349,0.344-0.525,0.505
			c-0.177,0.16-0.299,0.257-0.367,0.291c-0.177,0.09-0.366,0.134-0.566,0.134c-0.133,0-0.2-0.039-0.199-0.116
			c0-0.053,0.04-0.144,0.121-0.273l0.209-0.39c0.121-0.226,0.226-0.368,0.316-0.431C46.685,28.966,46.821,28.935,47.004,28.935z"/>
		<path fill="#0070B8" d="M51.731,34.083l-0.002,1.058c0,0.257-0.061,0.449-0.182,0.577c-0.121,0.128-0.274,0.192-0.459,0.192
			c-0.183-0.001-0.333-0.066-0.45-0.196s-0.176-0.322-0.175-0.576l0.006-3.525c0.001-0.568,0.207-0.853,0.618-0.853
			c0.21,0.001,0.361,0.067,0.454,0.2c0.093,0.134,0.144,0.331,0.152,0.591c0.152-0.26,0.308-0.456,0.467-0.59
			c0.159-0.132,0.373-0.198,0.639-0.198c0.266,0.001,0.523,0.067,0.774,0.201s0.375,0.31,0.375,0.529
			c0,0.154-0.054,0.282-0.161,0.383c-0.107,0.101-0.222,0.15-0.346,0.15c-0.046-0.001-0.159-0.029-0.336-0.087
			c-0.178-0.057-0.334-0.087-0.471-0.087c-0.186,0-0.337,0.049-0.455,0.146c-0.118,0.098-0.209,0.242-0.274,0.434
			c-0.065,0.192-0.11,0.42-0.136,0.685S51.731,33.703,51.731,34.083z"/>
		<path fill="#0070B8" d="M58.024,35.206c-0.307,0.238-0.603,0.416-0.89,0.535c-0.286,0.118-0.607,0.178-0.962,0.177
			c-0.325,0-0.61-0.065-0.856-0.193c-0.245-0.13-0.435-0.304-0.567-0.523c-0.133-0.22-0.199-0.458-0.199-0.715
			c0.001-0.347,0.111-0.641,0.331-0.886c0.22-0.244,0.522-0.407,0.905-0.489c0.081-0.019,0.28-0.061,0.599-0.124
			c0.319-0.065,0.592-0.124,0.819-0.178c0.228-0.054,0.474-0.119,0.741-0.196c-0.015-0.334-0.082-0.579-0.201-0.735
			c-0.119-0.156-0.365-0.235-0.739-0.235c-0.322-0.001-0.563,0.044-0.727,0.133c-0.162,0.09-0.301,0.225-0.418,0.403
			c-0.116,0.18-0.198,0.297-0.246,0.354c-0.048,0.057-0.151,0.086-0.309,0.086c-0.142,0-0.265-0.047-0.369-0.139
			c-0.104-0.091-0.155-0.208-0.155-0.35c0-0.223,0.08-0.439,0.237-0.649c0.158-0.21,0.405-0.383,0.739-0.518
			c0.334-0.137,0.75-0.203,1.248-0.202c0.557,0.001,0.994,0.066,1.313,0.199c0.318,0.131,0.542,0.34,0.674,0.625
			c0.131,0.284,0.196,0.661,0.195,1.131c0,0.297-0.002,0.55-0.003,0.757c-0.002,0.207-0.005,0.438-0.008,0.69
			c0,0.238,0.038,0.487,0.117,0.746c0.078,0.258,0.118,0.425,0.117,0.499c0,0.129-0.061,0.248-0.184,0.354
			c-0.123,0.106-0.261,0.16-0.415,0.16c-0.13,0-0.258-0.063-0.385-0.185C58.3,35.616,58.166,35.439,58.024,35.206z M57.943,33.374
			c-0.186,0.068-0.456,0.14-0.81,0.215s-0.599,0.131-0.735,0.166c-0.136,0.034-0.266,0.104-0.39,0.208
			c-0.124,0.104-0.186,0.248-0.186,0.434c0,0.191,0.072,0.354,0.217,0.489s0.335,0.202,0.57,0.202c0.25,0,0.481-0.054,0.693-0.163
			c0.212-0.108,0.368-0.25,0.467-0.424c0.115-0.191,0.173-0.507,0.174-0.946V33.374z"/>
		<path fill="#0070B8" d="M60.735,30.888h0.139l0.001-0.761c0-0.204,0.006-0.364,0.017-0.479c0.011-0.116,0.042-0.216,0.091-0.299
			c0.05-0.086,0.121-0.156,0.214-0.211c0.093-0.054,0.196-0.081,0.311-0.081c0.161,0.001,0.306,0.062,0.436,0.182
			c0.086,0.081,0.141,0.179,0.164,0.295s0.035,0.28,0.034,0.494l-0.001,0.862l0.464,0.001c0.179,0.001,0.316,0.044,0.41,0.129
			s0.141,0.194,0.141,0.327c0,0.17-0.068,0.289-0.202,0.357c-0.135,0.067-0.328,0.101-0.578,0.101l-0.236-0.001l-0.003,2.328
			c0,0.198,0.006,0.352,0.02,0.458c0.014,0.107,0.051,0.193,0.111,0.26c0.061,0.067,0.159,0.1,0.295,0.1
			c0.074,0,0.174-0.012,0.301-0.038s0.226-0.039,0.297-0.039c0.102,0,0.194,0.042,0.276,0.124s0.123,0.183,0.123,0.304
			c0,0.204-0.112,0.36-0.335,0.467c-0.223,0.108-0.542,0.162-0.96,0.162c-0.396-0.001-0.696-0.067-0.9-0.202
			c-0.204-0.133-0.338-0.316-0.4-0.553c-0.063-0.234-0.094-0.549-0.094-0.941l0.004-2.431h-0.167c-0.183,0-0.322-0.044-0.417-0.131
			c-0.096-0.087-0.144-0.196-0.143-0.329c0-0.133,0.05-0.242,0.151-0.327S60.543,30.888,60.735,30.888z"/>
		<path fill="#0070B8" d="M65.483,31.503l-0.006,3.66c0,0.254-0.061,0.445-0.182,0.575c-0.121,0.13-0.274,0.194-0.459,0.194
			s-0.336-0.066-0.452-0.201c-0.116-0.133-0.173-0.322-0.173-0.57l0.006-3.623c0-0.25,0.059-0.438,0.175-0.565
			c0.116-0.126,0.267-0.189,0.453-0.189s0.338,0.064,0.459,0.191S65.484,31.277,65.483,31.503z M64.86,30.194
			c-0.176,0-0.327-0.054-0.453-0.163c-0.125-0.108-0.187-0.262-0.187-0.46c0-0.179,0.064-0.326,0.193-0.442
			c0.128-0.115,0.278-0.173,0.448-0.173c0.164,0,0.309,0.054,0.436,0.158c0.126,0.105,0.189,0.259,0.189,0.459
			c0,0.195-0.063,0.348-0.187,0.457C65.177,30.141,65.03,30.194,64.86,30.194z"/>
		<path fill="#0070B8" d="M67.877,31.577l1.021,2.878l1.108-2.999c0.087-0.242,0.172-0.412,0.256-0.513
			c0.083-0.1,0.211-0.15,0.381-0.15c0.161,0,0.297,0.056,0.41,0.163c0.113,0.108,0.169,0.234,0.169,0.376
			c0,0.056-0.01,0.121-0.031,0.195s-0.043,0.144-0.07,0.208c-0.027,0.065-0.057,0.14-0.091,0.223l-1.22,3.014
			c-0.034,0.087-0.079,0.196-0.133,0.328c-0.055,0.133-0.115,0.247-0.181,0.341c-0.067,0.095-0.149,0.168-0.247,0.221
			c-0.097,0.053-0.215,0.078-0.354,0.078c-0.18,0-0.323-0.041-0.429-0.124c-0.107-0.082-0.185-0.172-0.236-0.27
			c-0.051-0.097-0.136-0.29-0.256-0.577l-1.201-2.985c-0.028-0.074-0.057-0.148-0.086-0.223c-0.029-0.074-0.054-0.15-0.074-0.228
			s-0.029-0.144-0.029-0.199c0-0.087,0.026-0.173,0.079-0.258c0.053-0.085,0.125-0.154,0.218-0.208
			c0.093-0.054,0.193-0.081,0.302-0.081c0.21,0.001,0.354,0.062,0.433,0.183C67.695,31.09,67.782,31.292,67.877,31.577z"/>
		<path fill="#0070B8" d="M75.852,33.688l-2.477-0.004c0.002,0.287,0.06,0.541,0.173,0.761c0.112,0.22,0.262,0.386,0.449,0.497
			s0.394,0.168,0.62,0.168c0.151,0,0.29-0.018,0.415-0.053c0.125-0.035,0.247-0.091,0.364-0.167
			c0.118-0.075,0.226-0.155,0.325-0.242c0.099-0.087,0.228-0.204,0.385-0.352c0.065-0.056,0.158-0.083,0.278-0.083
			c0.13,0,0.235,0.035,0.315,0.107c0.081,0.071,0.121,0.171,0.12,0.302c0,0.114-0.045,0.248-0.135,0.4
			c-0.09,0.152-0.226,0.3-0.407,0.44c-0.181,0.14-0.408,0.256-0.682,0.349c-0.274,0.092-0.588,0.139-0.944,0.138
			c-0.813-0.001-1.445-0.234-1.896-0.699c-0.451-0.465-0.675-1.094-0.674-1.889c0-0.374,0.057-0.722,0.169-1.041
			c0.112-0.32,0.275-0.595,0.488-0.822c0.214-0.229,0.477-0.403,0.79-0.526c0.312-0.121,0.659-0.182,1.04-0.181
			c0.495,0.001,0.918,0.105,1.272,0.314c0.354,0.21,0.619,0.479,0.794,0.811c0.176,0.332,0.263,0.669,0.263,1.013
			c0,0.318-0.092,0.524-0.274,0.618C76.439,33.642,76.183,33.688,75.852,33.688z M73.376,32.964l2.296,0.004
			c-0.03-0.433-0.147-0.756-0.349-0.973c-0.203-0.215-0.469-0.323-0.8-0.323c-0.315-0.001-0.575,0.108-0.777,0.325
			C73.543,32.215,73.42,32.538,73.376,32.964z"/>
		<path fill="#0070B8" d="M84.185,35.241l0-0.125c-0.171,0.194-0.339,0.353-0.504,0.475c-0.166,0.122-0.346,0.215-0.539,0.277
			c-0.193,0.063-0.404,0.095-0.633,0.095c-0.303-0.001-0.584-0.065-0.842-0.194s-0.481-0.313-0.669-0.551s-0.331-0.52-0.428-0.841
			c-0.097-0.321-0.145-0.67-0.145-1.044c0.001-0.791,0.196-1.408,0.583-1.85s0.896-0.662,1.527-0.66
			c0.365,0,0.672,0.063,0.923,0.188c0.25,0.126,0.494,0.319,0.732,0.579l0.003-1.87c0-0.26,0.052-0.456,0.156-0.588
			c0.104-0.133,0.251-0.199,0.443-0.199c0.192,0.001,0.339,0.062,0.442,0.184c0.104,0.123,0.155,0.303,0.155,0.541l-0.009,5.585
			c0,0.241-0.056,0.422-0.168,0.543c-0.111,0.12-0.255,0.181-0.432,0.18c-0.173,0-0.316-0.063-0.429-0.188
			C84.241,35.651,84.185,35.473,84.185,35.241z M81.697,33.377c0,0.343,0.052,0.636,0.159,0.877
			c0.106,0.242,0.252,0.424,0.438,0.546c0.185,0.122,0.387,0.184,0.607,0.184c0.223,0.001,0.426-0.057,0.61-0.173
			c0.184-0.114,0.332-0.292,0.441-0.532c0.11-0.239,0.166-0.539,0.166-0.897c0-0.337-0.054-0.627-0.163-0.87
			c-0.109-0.242-0.257-0.428-0.444-0.558c-0.188-0.128-0.392-0.192-0.614-0.193c-0.232,0-0.439,0.065-0.622,0.196
			c-0.183,0.132-0.325,0.32-0.425,0.565C81.748,32.767,81.697,33.052,81.697,33.377z"/>
		<path fill="#0070B8" d="M90.131,35.261l0-0.162c-0.152,0.19-0.311,0.352-0.479,0.481c-0.167,0.13-0.35,0.226-0.548,0.289
			c-0.198,0.063-0.424,0.094-0.677,0.094c-0.306-0.001-0.581-0.064-0.824-0.192c-0.242-0.126-0.43-0.301-0.563-0.524
			c-0.157-0.27-0.235-0.656-0.234-1.16l0.004-2.51c0-0.253,0.058-0.442,0.172-0.567c0.114-0.126,0.267-0.188,0.455-0.188
			c0.192,0,0.346,0.064,0.463,0.191s0.176,0.315,0.175,0.565l-0.003,2.027c0,0.294,0.024,0.541,0.073,0.74s0.138,0.355,0.266,0.47
			c0.128,0.112,0.302,0.169,0.521,0.17c0.213,0,0.415-0.063,0.604-0.189c0.188-0.127,0.327-0.292,0.414-0.496
			c0.071-0.18,0.107-0.572,0.108-1.178l0.002-1.541c0-0.25,0.06-0.438,0.177-0.564s0.271-0.19,0.46-0.189
			c0.188,0,0.339,0.063,0.454,0.188c0.114,0.126,0.171,0.315,0.17,0.568l-0.006,3.67c0,0.241-0.056,0.422-0.166,0.542
			s-0.251,0.181-0.424,0.181c-0.173-0.001-0.316-0.063-0.429-0.189C90.187,35.662,90.131,35.486,90.131,35.261z"/>
		<path fill="#0070B8" d="M101.221,33.73c0,0.216-0.055,0.45-0.162,0.701c-0.106,0.253-0.275,0.5-0.504,0.742
			c-0.229,0.242-0.521,0.439-0.877,0.59c-0.356,0.15-0.771,0.227-1.244,0.226c-0.359-0.001-0.686-0.035-0.979-0.104
			c-0.295-0.067-0.561-0.175-0.801-0.318c-0.239-0.145-0.459-0.334-0.659-0.569c-0.179-0.215-0.332-0.453-0.458-0.718
			c-0.126-0.265-0.221-0.547-0.284-0.848c-0.063-0.3-0.094-0.618-0.094-0.955c0.001-0.548,0.082-1.038,0.241-1.47
			c0.16-0.433,0.389-0.803,0.687-1.11s0.646-0.541,1.044-0.7c0.4-0.161,0.824-0.24,1.277-0.239c0.549,0.001,1.039,0.111,1.47,0.331
			c0.429,0.221,0.758,0.493,0.985,0.816c0.229,0.323,0.344,0.629,0.343,0.917c0,0.157-0.056,0.297-0.167,0.416
			c-0.112,0.121-0.247,0.182-0.404,0.182c-0.177-0.001-0.309-0.043-0.396-0.127c-0.088-0.083-0.186-0.228-0.294-0.432
			c-0.179-0.338-0.39-0.59-0.633-0.758c-0.241-0.167-0.542-0.251-0.897-0.251c-0.564-0.001-1.016,0.213-1.353,0.643
			c-0.336,0.429-0.505,1.04-0.506,1.831c-0.001,0.529,0.073,0.969,0.221,1.32c0.147,0.351,0.357,0.613,0.63,0.787
			c0.271,0.174,0.59,0.261,0.955,0.262c0.395,0,0.73-0.098,1.004-0.294c0.273-0.195,0.481-0.483,0.621-0.863
			c0.059-0.179,0.132-0.325,0.219-0.438c0.086-0.112,0.227-0.169,0.418-0.168c0.164,0,0.305,0.058,0.422,0.172
			C101.162,33.418,101.221,33.561,101.221,33.73z"/>
		<path fill="#0070B8" d="M107.301,33.429c0,0.378-0.06,0.726-0.178,1.044s-0.289,0.592-0.512,0.82s-0.488,0.403-0.799,0.525
			C105.504,35.939,105.155,36,104.77,36c-0.384-0.001-0.729-0.063-1.035-0.188c-0.305-0.125-0.57-0.302-0.794-0.532
			c-0.224-0.231-0.394-0.504-0.509-0.817c-0.116-0.313-0.174-0.662-0.173-1.043c0.001-0.383,0.06-0.733,0.179-1.052
			c0.117-0.318,0.286-0.591,0.506-0.815c0.221-0.226,0.486-0.399,0.799-0.521s0.658-0.183,1.035-0.182
			c0.383,0,0.73,0.063,1.043,0.188s0.58,0.301,0.802,0.53c0.223,0.229,0.392,0.502,0.507,0.817S107.301,33.049,107.301,33.429z
			 M106.03,33.427c0.001-0.516-0.112-0.918-0.339-1.206s-0.532-0.433-0.915-0.433c-0.248-0.001-0.466,0.063-0.655,0.191
			c-0.188,0.127-0.334,0.316-0.438,0.567c-0.102,0.25-0.152,0.542-0.153,0.876c-0.001,0.331,0.049,0.62,0.149,0.868
			c0.1,0.247,0.243,0.437,0.431,0.569c0.187,0.131,0.407,0.196,0.661,0.197c0.383,0,0.688-0.143,0.916-0.433
			C105.914,34.337,106.029,33.938,106.03,33.427z"/>
		<path fill="#0070B8" d="M109.643,31.56v0.152c0.223-0.293,0.467-0.508,0.731-0.646c0.265-0.137,0.569-0.206,0.911-0.205
			c0.334,0.001,0.633,0.074,0.895,0.221c0.264,0.145,0.459,0.351,0.588,0.617c0.084,0.155,0.139,0.322,0.164,0.501
			c0.023,0.18,0.035,0.408,0.035,0.687l-0.004,2.356c0,0.254-0.059,0.445-0.176,0.575c-0.115,0.129-0.268,0.194-0.453,0.194
			c-0.188-0.001-0.34-0.067-0.457-0.201c-0.117-0.133-0.176-0.322-0.176-0.57l0.004-2.11c0-0.417-0.059-0.736-0.174-0.959
			c-0.115-0.221-0.346-0.332-0.693-0.333c-0.225,0-0.43,0.066-0.615,0.201c-0.187,0.135-0.323,0.319-0.41,0.554
			c-0.063,0.188-0.094,0.541-0.094,1.058l-0.003,1.586c-0.001,0.257-0.062,0.449-0.18,0.578c-0.119,0.128-0.273,0.192-0.462,0.191
			c-0.183,0-0.332-0.066-0.45-0.201c-0.116-0.133-0.175-0.322-0.175-0.57l0.006-3.66c0-0.24,0.054-0.421,0.158-0.54
			c0.105-0.118,0.25-0.178,0.432-0.178c0.111,0,0.213,0.026,0.302,0.08c0.09,0.053,0.161,0.132,0.216,0.236
			C109.615,31.279,109.643,31.407,109.643,31.56z"/>
		<path fill="#0070B8" d="M114.49,30.978l0.141,0.001v-0.761c0-0.204,0.006-0.364,0.018-0.479c0.01-0.116,0.041-0.216,0.09-0.3
			c0.049-0.086,0.121-0.156,0.215-0.211c0.092-0.054,0.195-0.08,0.311-0.08c0.16,0,0.307,0.061,0.436,0.182
			c0.086,0.081,0.141,0.179,0.164,0.295s0.033,0.28,0.033,0.494v0.862l0.463,0.001c0.18,0,0.316,0.043,0.41,0.128
			c0.094,0.086,0.143,0.195,0.143,0.328c0,0.17-0.068,0.289-0.203,0.356s-0.328,0.102-0.578,0.101h-0.236l-0.004,2.328
			c0,0.198,0.006,0.351,0.021,0.457c0.012,0.107,0.049,0.193,0.109,0.26c0.061,0.067,0.158,0.1,0.295,0.101
			c0.074,0,0.174-0.013,0.301-0.039s0.227-0.038,0.297-0.038c0.104,0,0.195,0.041,0.277,0.123c0.08,0.082,0.123,0.183,0.121,0.304
			c0,0.204-0.111,0.36-0.334,0.468s-0.543,0.162-0.961,0.161c-0.396-0.001-0.695-0.067-0.898-0.201
			c-0.205-0.134-0.338-0.317-0.4-0.553c-0.064-0.234-0.094-0.549-0.094-0.941l0.004-2.431l-0.168-0.001
			c-0.182,0-0.322-0.043-0.418-0.13c-0.094-0.087-0.143-0.197-0.143-0.33s0.051-0.241,0.15-0.326
			C114.152,31.021,114.299,30.978,114.49,30.978z"/>
		<path fill="#0070B8" d="M119.225,34.196v1.058c-0.002,0.257-0.063,0.449-0.182,0.577c-0.121,0.128-0.275,0.192-0.461,0.192
			c-0.182-0.001-0.332-0.066-0.449-0.196s-0.176-0.322-0.176-0.576l0.006-3.525c0-0.568,0.207-0.853,0.619-0.852
			c0.209,0,0.361,0.066,0.455,0.199c0.092,0.134,0.143,0.331,0.15,0.591c0.152-0.26,0.307-0.456,0.469-0.59
			c0.158-0.132,0.371-0.198,0.637-0.198c0.266,0.001,0.525,0.067,0.775,0.201s0.375,0.31,0.375,0.529
			c-0.002,0.154-0.055,0.282-0.162,0.383c-0.105,0.101-0.221,0.15-0.346,0.15c-0.045-0.001-0.158-0.029-0.336-0.087
			c-0.178-0.057-0.334-0.087-0.471-0.087c-0.186,0-0.338,0.049-0.455,0.146c-0.117,0.098-0.209,0.242-0.273,0.434
			c-0.066,0.192-0.111,0.42-0.137,0.685C119.24,33.494,119.227,33.816,119.225,34.196z"/>
		<path fill="#0070B8" d="M127.063,33.462c-0.002,0.378-0.061,0.726-0.178,1.044c-0.119,0.318-0.289,0.592-0.512,0.82
			c-0.225,0.229-0.49,0.403-0.799,0.525c-0.311,0.121-0.658,0.182-1.045,0.182c-0.383-0.001-0.729-0.064-1.033-0.188
			c-0.307-0.125-0.572-0.302-0.795-0.532c-0.225-0.231-0.395-0.504-0.51-0.817s-0.172-0.662-0.172-1.043
			c0-0.383,0.061-0.733,0.178-1.052c0.119-0.318,0.287-0.591,0.508-0.815c0.219-0.226,0.484-0.399,0.799-0.521
			c0.313-0.121,0.656-0.183,1.035-0.182c0.383,0,0.73,0.063,1.043,0.188c0.311,0.124,0.578,0.301,0.801,0.53
			c0.223,0.229,0.391,0.502,0.506,0.817C127.006,32.734,127.063,33.082,127.063,33.462z M124.775,30.017l-0.463-0.544l-0.465,0.543
			c-0.129,0.153-0.217,0.248-0.264,0.282s-0.133,0.051-0.26,0.051l-0.371-0.001c-0.127,0-0.191-0.021-0.191-0.064
			c0-0.034,0.049-0.111,0.145-0.232l0.516-0.616c0.043-0.053,0.094-0.113,0.15-0.183c0.055-0.07,0.104-0.119,0.145-0.148
			c0.043-0.029,0.104-0.052,0.184-0.069c0.08-0.017,0.174-0.025,0.279-0.025l0.26,0.001c0.203,0,0.344,0.025,0.42,0.074
			c0.074,0.05,0.188,0.168,0.334,0.354l0.533,0.628c0.09,0.117,0.135,0.187,0.135,0.208c0,0.053-0.07,0.079-0.209,0.079
			l-0.352-0.001c-0.094,0-0.168-0.013-0.221-0.039c-0.055-0.026-0.107-0.068-0.156-0.124S124.824,30.075,124.775,30.017z
			 M125.791,33.46c0-0.516-0.113-0.918-0.338-1.206c-0.229-0.288-0.533-0.433-0.916-0.433c-0.248-0.001-0.467,0.063-0.654,0.191
			c-0.189,0.127-0.336,0.316-0.438,0.567c-0.102,0.25-0.154,0.542-0.154,0.876c0,0.331,0.049,0.62,0.148,0.868
			c0.102,0.247,0.244,0.437,0.432,0.569c0.186,0.131,0.406,0.196,0.66,0.197c0.383,0,0.689-0.143,0.918-0.433
			C125.676,34.37,125.791,33.971,125.791,33.46z"/>
		<path fill="#0070B8" d="M128.246,35.269l0.01-5.492c0-0.253,0.055-0.445,0.17-0.575c0.113-0.129,0.266-0.193,0.457-0.193
			c0.191,0.001,0.346,0.065,0.463,0.193s0.176,0.32,0.176,0.577l-0.008,5.492c-0.002,0.257-0.063,0.449-0.18,0.578
			c-0.119,0.128-0.275,0.192-0.463,0.191c-0.186,0-0.336-0.066-0.451-0.201C128.303,35.706,128.246,35.517,128.246,35.269z"/>
		<path fill="#0070B8" d="M134.547,33.786l-2.477-0.004c0.004,0.287,0.061,0.541,0.174,0.761c0.111,0.22,0.262,0.385,0.449,0.497
			c0.186,0.111,0.393,0.167,0.619,0.168c0.15,0,0.289-0.018,0.414-0.053s0.246-0.091,0.365-0.167
			c0.117-0.075,0.225-0.155,0.324-0.242s0.229-0.204,0.387-0.353c0.064-0.055,0.156-0.082,0.277-0.082
			c0.131,0,0.234,0.035,0.316,0.106c0.08,0.072,0.119,0.172,0.119,0.303c0,0.114-0.045,0.248-0.135,0.399
			c-0.09,0.153-0.227,0.301-0.406,0.441c-0.182,0.14-0.408,0.256-0.684,0.349c-0.273,0.092-0.588,0.139-0.943,0.138
			c-0.814-0.001-1.445-0.235-1.896-0.699c-0.451-0.465-0.676-1.095-0.674-1.89c0-0.374,0.057-0.721,0.168-1.04
			c0.113-0.32,0.275-0.595,0.488-0.822c0.215-0.229,0.477-0.404,0.791-0.526c0.313-0.122,0.658-0.182,1.039-0.181
			c0.494,0.001,0.918,0.105,1.271,0.314c0.354,0.21,0.619,0.479,0.795,0.811c0.176,0.332,0.264,0.669,0.262,1.013
			c0,0.318-0.092,0.524-0.273,0.618C135.135,33.74,134.879,33.787,134.547,33.786z M132.072,33.063l2.295,0.004
			c-0.029-0.433-0.145-0.757-0.348-0.973c-0.203-0.215-0.469-0.323-0.801-0.323c-0.314-0.001-0.574,0.108-0.777,0.325
			C132.24,32.313,132.115,32.637,132.072,33.063z"/>
		<path fill="#0070B8" d="M143.924,30.285l-1.504-0.003l-0.008,4.94c0,0.284-0.064,0.496-0.191,0.633
			c-0.127,0.138-0.291,0.207-0.492,0.206c-0.203,0-0.369-0.069-0.498-0.21c-0.127-0.14-0.191-0.35-0.191-0.631l0.008-4.94
			l-1.502-0.002c-0.236-0.001-0.41-0.053-0.525-0.156c-0.113-0.104-0.17-0.241-0.17-0.411c0-0.177,0.059-0.315,0.178-0.417
			c0.121-0.102,0.293-0.153,0.52-0.152l4.379,0.007c0.238,0,0.414,0.054,0.529,0.159c0.117,0.105,0.174,0.243,0.174,0.413
			s-0.059,0.307-0.176,0.41C144.334,30.234,144.158,30.285,143.924,30.285z"/>
		<path fill="#0070B8" d="M149.074,33.811l-2.477-0.004c0.004,0.287,0.061,0.541,0.174,0.761c0.111,0.22,0.262,0.385,0.449,0.497
			c0.186,0.111,0.393,0.167,0.619,0.168c0.15,0,0.289-0.018,0.414-0.053s0.246-0.091,0.365-0.167
			c0.117-0.075,0.225-0.155,0.324-0.242s0.229-0.204,0.387-0.353c0.064-0.056,0.156-0.082,0.277-0.082
			c0.131,0,0.234,0.035,0.316,0.106c0.08,0.072,0.119,0.172,0.119,0.303c0,0.114-0.045,0.248-0.135,0.399
			c-0.09,0.153-0.227,0.301-0.406,0.441c-0.182,0.14-0.408,0.256-0.684,0.348c-0.273,0.093-0.588,0.139-0.943,0.139
			c-0.814-0.002-1.445-0.235-1.896-0.699c-0.451-0.465-0.676-1.095-0.674-1.89c0-0.374,0.057-0.721,0.168-1.04
			c0.113-0.32,0.275-0.595,0.488-0.822c0.215-0.229,0.477-0.404,0.791-0.526c0.313-0.122,0.658-0.182,1.039-0.181
			c0.494,0.001,0.918,0.105,1.271,0.314c0.354,0.21,0.619,0.479,0.795,0.811c0.176,0.332,0.264,0.669,0.262,1.013
			c0,0.318-0.092,0.524-0.273,0.618C149.662,33.765,149.406,33.811,149.074,33.811z M146.6,33.087l2.295,0.004
			c-0.029-0.433-0.145-0.757-0.348-0.973c-0.203-0.215-0.469-0.323-0.801-0.323c-0.314-0.001-0.574,0.108-0.777,0.325
			C146.768,32.338,146.643,32.661,146.6,33.087z"/>
		<path fill="#0070B8" d="M155.916,34.518c0,0.158-0.047,0.326-0.143,0.505c-0.094,0.18-0.238,0.351-0.432,0.513
			c-0.193,0.161-0.438,0.292-0.73,0.39c-0.295,0.1-0.625,0.147-0.994,0.147c-0.781-0.002-1.393-0.23-1.83-0.687
			c-0.439-0.457-0.658-1.07-0.656-1.837c0-0.52,0.102-0.978,0.305-1.377c0.201-0.398,0.492-0.706,0.873-0.924
			s0.836-0.325,1.363-0.324c0.328,0,0.629,0.049,0.902,0.145c0.273,0.097,0.506,0.221,0.695,0.373
			c0.189,0.151,0.334,0.313,0.436,0.484c0.1,0.172,0.15,0.333,0.15,0.481c0,0.151-0.057,0.279-0.17,0.384
			c-0.113,0.105-0.25,0.158-0.41,0.158c-0.105-0.001-0.193-0.028-0.264-0.082c-0.068-0.055-0.146-0.142-0.232-0.263
			c-0.156-0.235-0.316-0.412-0.484-0.529c-0.17-0.118-0.383-0.178-0.643-0.178c-0.375-0.001-0.676,0.146-0.904,0.437
			c-0.23,0.292-0.346,0.692-0.346,1.199c0,0.238,0.029,0.457,0.086,0.656c0.059,0.199,0.145,0.37,0.256,0.511
			c0.109,0.141,0.244,0.248,0.402,0.32c0.158,0.073,0.33,0.11,0.52,0.11c0.254,0,0.471-0.058,0.652-0.176
			c0.18-0.117,0.342-0.296,0.48-0.536c0.076-0.143,0.162-0.254,0.252-0.334c0.09-0.081,0.199-0.12,0.328-0.12
			c0.154,0,0.283,0.059,0.385,0.176C155.865,34.26,155.916,34.385,155.916,34.518z"/>
		<path fill="#0070B8" d="M158.457,29.827l-0.004,1.879c0.162-0.186,0.318-0.331,0.471-0.439c0.154-0.108,0.324-0.189,0.51-0.243
			s0.385-0.081,0.598-0.08c0.322,0,0.607,0.069,0.855,0.205c0.248,0.138,0.445,0.335,0.586,0.595c0.09,0.151,0.15,0.321,0.182,0.509
			c0.029,0.188,0.045,0.403,0.045,0.647l-0.004,2.426c-0.002,0.254-0.059,0.445-0.176,0.574c-0.115,0.13-0.27,0.195-0.463,0.195
			c-0.416-0.001-0.625-0.259-0.623-0.772l0.002-2.139c0.002-0.404-0.059-0.716-0.178-0.935c-0.121-0.218-0.35-0.327-0.688-0.328
			c-0.225,0-0.43,0.063-0.609,0.192c-0.182,0.128-0.318,0.303-0.406,0.525c-0.068,0.188-0.104,0.524-0.105,1.007l-0.002,1.674
			c0,0.251-0.057,0.441-0.17,0.573c-0.113,0.131-0.271,0.196-0.471,0.196c-0.418-0.001-0.627-0.258-0.625-0.771l0.008-5.492
			c0-0.257,0.055-0.449,0.166-0.577c0.109-0.128,0.264-0.191,0.463-0.191s0.357,0.065,0.471,0.195
			C158.4,29.382,158.457,29.574,158.457,29.827z"/>
		<path fill="#0070B8" d="M164.293,31.651v0.152c0.223-0.294,0.467-0.508,0.73-0.646c0.266-0.137,0.57-0.206,0.912-0.205
			c0.334,0,0.633,0.074,0.895,0.22c0.264,0.146,0.459,0.352,0.588,0.617c0.084,0.156,0.139,0.323,0.164,0.502
			c0.023,0.18,0.035,0.408,0.035,0.687l-0.004,2.356c0,0.254-0.059,0.445-0.176,0.574c-0.115,0.13-0.268,0.195-0.453,0.195
			c-0.188-0.001-0.34-0.067-0.457-0.201c-0.117-0.133-0.176-0.322-0.176-0.57l0.004-2.11c0-0.417-0.059-0.736-0.174-0.959
			c-0.115-0.221-0.346-0.332-0.693-0.333c-0.225,0-0.43,0.066-0.615,0.201s-0.324,0.319-0.41,0.554
			c-0.063,0.188-0.094,0.541-0.094,1.058l-0.002,1.586c-0.002,0.257-0.063,0.449-0.18,0.578c-0.119,0.128-0.275,0.191-0.463,0.191
			c-0.184,0-0.332-0.066-0.449-0.201c-0.117-0.133-0.176-0.322-0.176-0.57l0.006-3.66c0-0.24,0.053-0.421,0.158-0.54
			s0.25-0.178,0.432-0.178c0.111,0,0.213,0.026,0.303,0.08c0.09,0.053,0.16,0.132,0.215,0.236
			C164.266,31.371,164.293,31.499,164.293,31.651z"/>
		<path fill="#0070B8" d="M170.338,31.679l-0.006,3.66c-0.002,0.254-0.063,0.445-0.184,0.575c-0.119,0.13-0.273,0.195-0.459,0.194
			c-0.186,0-0.336-0.066-0.451-0.2c-0.117-0.134-0.174-0.323-0.174-0.571l0.006-3.623c0-0.25,0.059-0.438,0.176-0.564
			c0.115-0.127,0.266-0.19,0.451-0.19c0.186,0.001,0.34,0.064,0.459,0.191C170.277,31.277,170.338,31.453,170.338,31.679z
			 M169.713,30.37c-0.176,0-0.328-0.054-0.453-0.162c-0.125-0.109-0.188-0.263-0.186-0.461c0-0.179,0.063-0.326,0.193-0.441
			c0.127-0.116,0.277-0.174,0.447-0.174c0.164,0.001,0.309,0.054,0.436,0.158c0.127,0.105,0.189,0.259,0.189,0.459
			c0,0.195-0.063,0.348-0.186,0.457C170.029,30.316,169.883,30.371,169.713,30.37z"/>
		<path fill="#0070B8" d="M175.297,37.152l0.002-1.786c-0.244,0.244-0.5,0.43-0.764,0.559c-0.264,0.127-0.559,0.191-0.881,0.19
			c-0.393,0-0.75-0.104-1.072-0.313c-0.322-0.207-0.576-0.505-0.76-0.894c-0.184-0.388-0.273-0.845-0.273-1.371
			c0-0.537,0.094-0.999,0.281-1.384c0.186-0.386,0.443-0.678,0.773-0.879c0.33-0.199,0.695-0.299,1.098-0.299
			c0.34,0.001,0.645,0.071,0.912,0.213c0.27,0.141,0.5,0.355,0.691,0.644v-0.153c0-0.231,0.057-0.408,0.168-0.528
			c0.111-0.121,0.256-0.181,0.432-0.181s0.32,0.061,0.432,0.18c0.109,0.119,0.166,0.296,0.166,0.531l-0.01,5.474
			c0,0.563-0.201,0.844-0.6,0.843c-0.248,0-0.408-0.076-0.484-0.228S175.295,37.412,175.297,37.152z M172.82,33.53
			c0,0.34,0.055,0.633,0.162,0.879c0.109,0.246,0.254,0.429,0.434,0.549c0.18,0.119,0.373,0.178,0.58,0.179
			c0.225,0,0.432-0.058,0.621-0.177s0.342-0.301,0.455-0.544c0.115-0.245,0.174-0.546,0.174-0.905c0-0.253-0.033-0.482-0.098-0.687
			c-0.068-0.204-0.158-0.374-0.271-0.509s-0.246-0.234-0.395-0.302s-0.305-0.101-0.473-0.101c-0.34-0.001-0.623,0.14-0.85,0.421
			S172.82,33.014,172.82,33.53z"/>
		<path fill="#0070B8" d="M181.246,35.413v-0.162c-0.152,0.191-0.313,0.353-0.479,0.481c-0.168,0.13-0.35,0.227-0.547,0.289
			c-0.199,0.063-0.426,0.095-0.68,0.094c-0.305,0-0.578-0.064-0.822-0.191c-0.242-0.127-0.43-0.302-0.563-0.524
			c-0.156-0.27-0.234-0.656-0.234-1.16l0.004-2.51c0-0.253,0.057-0.442,0.174-0.567c0.113-0.126,0.266-0.188,0.453-0.188
			c0.191,0,0.348,0.063,0.465,0.19c0.115,0.128,0.176,0.316,0.176,0.566l-0.004,2.027c0,0.294,0.023,0.541,0.072,0.74
			s0.137,0.355,0.266,0.469c0.129,0.112,0.303,0.17,0.521,0.17c0.215,0.001,0.414-0.063,0.604-0.189
			c0.189-0.126,0.328-0.291,0.414-0.495c0.07-0.18,0.107-0.572,0.109-1.178l0.002-1.541c0-0.25,0.059-0.438,0.178-0.565
			c0.117-0.126,0.27-0.189,0.459-0.189c0.188,0.001,0.34,0.063,0.455,0.189c0.113,0.125,0.17,0.314,0.17,0.567l-0.006,3.67
			c0,0.241-0.057,0.422-0.166,0.543c-0.111,0.12-0.252,0.181-0.426,0.18c-0.172,0-0.316-0.063-0.428-0.188
			C181.301,35.814,181.246,35.639,181.246,35.413z"/>
		<path fill="#0070B8" d="M187.422,33.875l-2.477-0.004c0.002,0.287,0.059,0.541,0.172,0.761c0.111,0.22,0.262,0.385,0.449,0.497
			c0.188,0.111,0.395,0.167,0.619,0.168c0.152,0,0.291-0.018,0.416-0.054c0.125-0.034,0.246-0.09,0.363-0.166
			c0.117-0.075,0.227-0.156,0.326-0.242c0.1-0.087,0.227-0.204,0.385-0.353c0.064-0.056,0.158-0.082,0.279-0.082
			c0.129,0,0.234,0.035,0.314,0.106s0.121,0.172,0.121,0.303c-0.002,0.114-0.047,0.247-0.137,0.399
			c-0.09,0.153-0.225,0.301-0.406,0.441c-0.182,0.14-0.408,0.256-0.682,0.348c-0.275,0.093-0.59,0.139-0.945,0.139
			c-0.813-0.002-1.445-0.235-1.895-0.699c-0.451-0.465-0.676-1.095-0.674-1.89c0-0.374,0.057-0.722,0.168-1.04
			c0.111-0.32,0.273-0.595,0.488-0.823c0.213-0.229,0.477-0.403,0.789-0.525s0.658-0.182,1.039-0.181
			c0.494,0,0.92,0.105,1.273,0.314s0.619,0.479,0.793,0.811c0.176,0.331,0.264,0.669,0.264,1.013c0,0.318-0.092,0.523-0.275,0.618
			C188.01,33.829,187.752,33.875,187.422,33.875z M184.945,33.151l2.297,0.004c-0.031-0.434-0.146-0.757-0.35-0.973
			c-0.201-0.215-0.469-0.323-0.799-0.323c-0.316-0.001-0.574,0.108-0.777,0.325C185.113,32.402,184.99,32.726,184.945,33.151z"/>
	</g>
	<g>
		<path fill="#0070B8" d="M29.432,19.998l0.002-6.364c0-0.542,0.129-0.948,0.386-1.219c0.256-0.271,0.594-0.406,1.012-0.406
			c0.438,0,0.784,0.135,1.041,0.406s0.385,0.677,0.384,1.219l-0.002,6.508c0,0.74,0.087,1.359,0.261,1.856
			c0.174,0.496,0.483,0.881,0.926,1.155s1.065,0.411,1.863,0.411c1.103,0,1.882-0.278,2.339-0.834
			c0.457-0.557,0.685-1.4,0.685-2.532l0.002-6.563c0-0.547,0.127-0.956,0.381-1.223s0.592-0.401,1.017-0.401
			s0.769,0.134,1.032,0.402c0.263,0.268,0.395,0.676,0.394,1.223l-0.002,6.364c0,1.035-0.107,1.898-0.319,2.59
			c-0.213,0.692-0.613,1.3-1.203,1.823c-0.507,0.445-1.097,0.77-1.769,0.975c-0.672,0.204-1.458,0.306-2.357,0.306
			c-1.071,0-1.993-0.11-2.767-0.33c-0.773-0.22-1.404-0.56-1.891-1.021c-0.488-0.461-0.846-1.05-1.074-1.77
			C29.545,21.856,29.432,20.997,29.432,19.998z"/>
		<path fill="#0070B8" d="M53.257,14.453l-3.08-0.001l-0.003,9.614c0,0.554-0.13,0.964-0.391,1.232
			c-0.26,0.268-0.596,0.401-1.007,0.401c-0.418,0-0.759-0.135-1.022-0.406c-0.263-0.271-0.394-0.68-0.394-1.228l0.003-9.614l-3.08,0
			c-0.482,0-0.84-0.101-1.074-0.303c-0.235-0.201-0.352-0.468-0.352-0.799c0-0.343,0.123-0.614,0.367-0.813
			c0.244-0.198,0.597-0.298,1.06-0.297l8.974,0.002c0.488,0,0.851,0.103,1.088,0.308c0.238,0.205,0.356,0.473,0.356,0.803
			c0,0.331-0.121,0.598-0.361,0.799C54.1,14.353,53.738,14.453,53.257,14.453z"/>
		<path fill="#0070B8" d="M88.321,21.514c0,0.8-0.218,1.519-0.652,2.157c-0.434,0.638-1.07,1.137-1.906,1.498
			c-0.837,0.361-1.829,0.541-2.976,0.541c-1.375,0-2.51-0.247-3.403-0.741c-0.633-0.355-1.148-0.829-1.544-1.422
			c-0.396-0.592-0.594-1.169-0.594-1.729c0-0.325,0.12-0.603,0.357-0.835c0.238-0.231,0.541-0.347,0.908-0.347
			c0.297,0,0.549,0.09,0.755,0.271s0.382,0.448,0.527,0.803c0.177,0.422,0.369,0.774,0.575,1.057c0.206,0.283,0.495,0.516,0.869,0.7
			c0.374,0.184,0.865,0.276,1.474,0.276c0.836,0,1.516-0.185,2.039-0.555c0.523-0.37,0.785-0.832,0.785-1.385
			c0-0.439-0.141-0.796-0.422-1.07c-0.282-0.274-0.646-0.483-1.093-0.628c-0.447-0.144-1.044-0.298-1.792-0.46
			c-1.001-0.223-1.839-0.483-2.515-0.782c-0.675-0.298-1.21-0.704-1.606-1.218c-0.396-0.515-0.594-1.155-0.594-1.919
			c0-0.728,0.21-1.375,0.628-1.94c0.419-0.565,1.024-1,1.816-1.304c0.792-0.304,1.724-0.456,2.795-0.456
			c0.855,0,1.595,0.102,2.22,0.303c0.624,0.202,1.142,0.47,1.554,0.804c0.412,0.334,0.712,0.685,0.903,1.052
			c0.19,0.367,0.285,0.725,0.285,1.074c0,0.319-0.119,0.606-0.356,0.862c-0.238,0.256-0.534,0.384-0.889,0.383
			c-0.323,0-0.569-0.077-0.737-0.23c-0.168-0.154-0.35-0.405-0.546-0.754c-0.253-0.5-0.557-0.89-0.912-1.169s-0.925-0.42-1.711-0.42
			c-0.729,0-1.316,0.151-1.763,0.456c-0.447,0.304-0.671,0.669-0.671,1.097c0,0.265,0.076,0.494,0.229,0.686
			c0.152,0.192,0.361,0.358,0.627,0.497c0.266,0.138,0.535,0.247,0.808,0.325c0.272,0.079,0.723,0.193,1.35,0.343
			c0.786,0.175,1.497,0.368,2.134,0.579c0.637,0.211,1.178,0.466,1.625,0.768s0.795,0.682,1.046,1.142
			C88.195,20.281,88.321,20.845,88.321,21.514z"/>
		<path fill="#0070B8" d="M99.9,14.322l-6.359-0.001l-0.001,3.25l5.855,0.001c0.431,0,0.753,0.092,0.965,0.276
			c0.213,0.184,0.318,0.426,0.318,0.727c0,0.301-0.104,0.546-0.313,0.735s-0.532,0.284-0.97,0.284l-5.855-0.001l-0.001,3.764
			l6.579,0.001c0.443,0,0.778,0.098,1.003,0.294c0.225,0.195,0.337,0.456,0.337,0.781c0,0.313-0.113,0.567-0.338,0.763
			c-0.225,0.196-0.56,0.293-1.003,0.293l-7.671-0.002c-0.615,0-1.057-0.13-1.326-0.389c-0.27-0.259-0.404-0.677-0.404-1.255
			l0.003-9.948c0-0.385,0.061-0.7,0.181-0.943c0.12-0.244,0.309-0.421,0.565-0.533c0.257-0.111,0.585-0.167,0.984-0.167l7.453,0.002
			c0.45,0,0.784,0.095,1.003,0.285c0.219,0.189,0.328,0.438,0.328,0.745c0,0.313-0.109,0.564-0.328,0.754
			C100.685,14.228,100.351,14.322,99.9,14.322z"/>
		<path fill="#0070B8" d="M115.574,21.313c0,0.421-0.109,0.877-0.328,1.367c-0.219,0.491-0.563,0.972-1.032,1.444
			c-0.469,0.472-1.068,0.856-1.797,1.15s-1.578,0.442-2.548,0.441c-0.735,0-1.403-0.067-2.006-0.199
			c-0.602-0.132-1.148-0.339-1.64-0.619s-0.942-0.648-1.354-1.106c-0.368-0.415-0.682-0.88-0.941-1.395s-0.455-1.064-0.585-1.648
			c-0.129-0.583-0.193-1.204-0.193-1.859c0-1.065,0.164-2.019,0.49-2.861s0.794-1.563,1.403-2.162
			c0.608-0.598,1.321-1.054,2.139-1.367c0.818-0.313,1.689-0.469,2.614-0.469c1.128,0,2.133,0.214,3.014,0.642
			c0.881,0.427,1.556,0.956,2.024,1.584c0.469,0.629,0.703,1.224,0.703,1.784c0,0.307-0.114,0.577-0.342,0.812
			c-0.229,0.235-0.504,0.352-0.827,0.352c-0.361,0-0.633-0.082-0.813-0.244c-0.181-0.162-0.382-0.442-0.604-0.839
			c-0.367-0.656-0.8-1.146-1.297-1.472c-0.498-0.325-1.111-0.488-1.84-0.488c-1.16,0-2.084,0.418-2.771,1.254
			c-0.688,0.836-1.032,2.025-1.032,3.565c0,1.029,0.151,1.885,0.455,2.568c0.305,0.683,0.735,1.194,1.293,1.531
			s1.211,0.506,1.959,0.506c0.811,0,1.497-0.19,2.058-0.573c0.561-0.381,0.984-0.943,1.27-1.683c0.12-0.349,0.27-0.633,0.447-0.853
			s0.463-0.329,0.855-0.329c0.336,0,0.624,0.112,0.865,0.334C115.454,20.706,115.574,20.983,115.574,21.313z"/>
		<path fill="#0070B8" d="M118.133,20.023l0.002-6.364c0-0.542,0.128-0.948,0.385-1.219s0.595-0.406,1.013-0.406
			c0.438,0,0.784,0.135,1.041,0.407c0.257,0.271,0.385,0.677,0.385,1.219l-0.002,6.508c-0.001,0.74,0.086,1.359,0.261,1.855
			c0.174,0.496,0.483,0.881,0.927,1.155c0.443,0.274,1.064,0.411,1.863,0.412c1.103,0,1.882-0.278,2.339-0.834
			c0.456-0.557,0.685-1.4,0.686-2.532l0.002-6.563c0-0.547,0.126-0.956,0.38-1.223c0.253-0.268,0.593-0.402,1.018-0.402
			c0.424,0,0.768,0.135,1.031,0.402c0.263,0.268,0.395,0.676,0.395,1.223l-0.002,6.364c-0.001,1.035-0.107,1.898-0.319,2.59
			c-0.213,0.692-0.613,1.3-1.204,1.823c-0.507,0.445-1.097,0.77-1.768,0.975c-0.672,0.204-1.458,0.306-2.358,0.306
			c-1.07,0-1.993-0.111-2.766-0.331c-0.773-0.219-1.404-0.56-1.893-1.021c-0.486-0.46-0.845-1.05-1.073-1.77
			C118.246,21.881,118.132,21.022,118.133,20.023z"/>
		<path fill="#0070B8" d="M136.699,19.839l-0.989,0l-0.002,4.252c0,0.56-0.13,0.972-0.39,1.237s-0.599,0.397-1.017,0.397
			c-0.45,0-0.799-0.139-1.046-0.416s-0.371-0.683-0.371-1.219l0.004-10.183c0-0.578,0.137-0.996,0.409-1.255
			c0.272-0.258,0.713-0.388,1.321-0.388l4.592,0.001c0.633,0,1.175,0.026,1.625,0.077c0.45,0.052,0.855,0.156,1.217,0.312
			c0.438,0.175,0.824,0.425,1.16,0.75c0.336,0.325,0.591,0.703,0.764,1.133c0.175,0.43,0.262,0.886,0.262,1.368
			c0,0.987-0.294,1.775-0.88,2.365c-0.587,0.59-1.476,1.007-2.667,1.253c0.501,0.253,0.979,0.626,1.436,1.12
			c0.455,0.493,0.862,1.019,1.221,1.576s0.637,1.059,0.837,1.507c0.198,0.449,0.298,0.757,0.298,0.926
			c0,0.175-0.059,0.348-0.176,0.519c-0.117,0.171-0.277,0.307-0.479,0.406c-0.203,0.1-0.438,0.149-0.704,0.149
			c-0.316,0-0.583-0.071-0.798-0.212c-0.216-0.142-0.401-0.321-0.557-0.537c-0.155-0.217-0.366-0.536-0.632-0.957l-1.131-1.788
			c-0.405-0.656-0.769-1.156-1.088-1.499s-0.645-0.578-0.974-0.704C137.614,19.903,137.199,19.839,136.699,19.839z M138.316,14.279
			l-2.605-0.001l-0.001,3.638l2.529,0.001c0.678,0,1.248-0.055,1.711-0.167c0.463-0.111,0.815-0.301,1.061-0.568
			c0.244-0.268,0.366-0.637,0.366-1.106c0-0.367-0.099-0.69-0.295-0.97c-0.196-0.28-0.469-0.49-0.817-0.628
			C139.936,14.346,139.285,14.279,138.316,14.279z"/>
		<path fill="#0070B8" d="M147.021,24.094l0.004-10.426c0-0.542,0.13-0.948,0.39-1.219s0.596-0.406,1.008-0.406
			c0.425,0,0.769,0.134,1.032,0.402c0.263,0.268,0.395,0.676,0.395,1.223l-0.004,10.426c0,0.548-0.132,0.957-0.395,1.228
			c-0.264,0.271-0.607,0.406-1.032,0.406c-0.405,0-0.739-0.137-1.003-0.411C147.152,25.043,147.021,24.635,147.021,24.094z"/>
		<path fill="#0070B8" d="M162.054,14.484l-3.08-0.001l-0.003,9.614c0,0.554-0.13,0.964-0.39,1.232
			c-0.26,0.268-0.596,0.402-1.008,0.401c-0.418,0-0.759-0.135-1.022-0.406c-0.263-0.271-0.395-0.68-0.395-1.228l0.003-9.614l-3.08,0
			c-0.481,0-0.84-0.101-1.074-0.303c-0.233-0.201-0.351-0.468-0.351-0.799c0-0.343,0.122-0.614,0.366-0.813
			c0.244-0.198,0.598-0.298,1.06-0.297l8.975,0.002c0.488,0,0.851,0.103,1.088,0.308c0.238,0.205,0.357,0.473,0.357,0.803
			c0,0.331-0.121,0.598-0.362,0.799C162.896,14.384,162.535,14.484,162.054,14.484z"/>
		<path fill="#0070B8" d="M174.086,24.011l-0.665-1.661l-5.666-0.002l-0.666,1.697c-0.26,0.662-0.481,1.109-0.665,1.34
			c-0.185,0.231-0.485,0.347-0.903,0.347c-0.355,0-0.669-0.124-0.941-0.371c-0.272-0.247-0.409-0.526-0.409-0.839
			c0-0.181,0.032-0.367,0.097-0.56c0.063-0.193,0.168-0.46,0.313-0.804l3.566-8.592c0.102-0.247,0.225-0.543,0.367-0.889
			c0.143-0.346,0.295-0.633,0.457-0.862c0.161-0.229,0.373-0.414,0.637-0.555c0.263-0.141,0.588-0.212,0.975-0.212
			c0.393,0,0.721,0.071,0.983,0.213c0.263,0.141,0.476,0.323,0.637,0.546c0.162,0.223,0.298,0.462,0.409,0.718
			c0.11,0.256,0.252,0.597,0.422,1.024l3.639,8.541c0.285,0.65,0.427,1.123,0.427,1.417c0,0.307-0.134,0.588-0.403,0.844
			s-0.595,0.383-0.975,0.383c-0.222,0-0.412-0.038-0.57-0.113s-0.292-0.178-0.399-0.307s-0.224-0.328-0.347-0.596
			C174.28,24.452,174.174,24.216,174.086,24.011z M168.498,20.336l4.163,0.001l-2.1-5.462L168.498,20.336z"/>
		<path fill="#0070B8" d="M189.763,21.542c0,0.8-0.217,1.52-0.651,2.157c-0.436,0.638-1.07,1.137-1.907,1.498
			c-0.836,0.36-1.828,0.541-2.976,0.541c-1.375,0-2.51-0.247-3.403-0.741c-0.634-0.355-1.148-0.829-1.544-1.422
			c-0.396-0.592-0.594-1.169-0.594-1.729c0-0.325,0.119-0.603,0.356-0.835c0.237-0.231,0.541-0.348,0.909-0.348
			c0.298,0,0.549,0.091,0.755,0.271c0.205,0.181,0.382,0.448,0.527,0.803c0.178,0.421,0.369,0.773,0.575,1.057s0.496,0.516,0.87,0.7
			c0.373,0.184,0.864,0.276,1.473,0.276c0.837,0,1.517-0.185,2.04-0.555c0.522-0.37,0.784-0.832,0.784-1.385
			c0-0.439-0.142-0.796-0.424-1.07c-0.28-0.273-0.646-0.483-1.092-0.627c-0.447-0.145-1.044-0.298-1.792-0.46
			c-1.001-0.223-1.84-0.483-2.515-0.782c-0.675-0.298-1.21-0.705-1.606-1.219c-0.396-0.515-0.593-1.154-0.593-1.918
			c0-0.728,0.209-1.375,0.628-1.941c0.418-0.565,1.023-1,1.815-1.304c0.793-0.303,1.725-0.456,2.795-0.455
			c0.856,0,1.596,0.102,2.22,0.303c0.625,0.203,1.143,0.47,1.555,0.804s0.713,0.685,0.902,1.052c0.19,0.367,0.285,0.725,0.285,1.074
			c0,0.319-0.119,0.606-0.356,0.862c-0.238,0.256-0.534,0.383-0.889,0.383c-0.323,0-0.569-0.077-0.737-0.23
			c-0.168-0.154-0.35-0.405-0.547-0.754c-0.253-0.5-0.558-0.889-0.912-1.169s-0.925-0.42-1.71-0.42
			c-0.729,0-1.317,0.151-1.765,0.456c-0.447,0.304-0.67,0.669-0.67,1.096c0,0.265,0.076,0.494,0.228,0.687
			c0.152,0.192,0.361,0.358,0.628,0.497c0.266,0.138,0.535,0.247,0.808,0.325c0.272,0.079,0.723,0.193,1.351,0.344
			c0.784,0.175,1.496,0.368,2.133,0.578c0.637,0.211,1.179,0.467,1.626,0.768c0.446,0.302,0.795,0.682,1.045,1.143
			C189.639,20.31,189.763,20.874,189.763,21.542z"/>
	</g>
	<path fill-rule="evenodd" clip-rule="evenodd" fill="#0070B8" d="M22.147,25.963h4.089c0.032-0.064,0.01-1.391,0.01-1.591v-1.613
		v-3.226c-0.074-0.027,0.036,0.054-0.099-0.047l-0.159-0.104c-0.086-0.056-0.166-0.109-0.254-0.168
		c-0.175-0.114-0.343-0.221-0.517-0.336l-3.091-2.02c-0.521-0.001-1.04,0-1.56,0c-0.267,0-0.501-0.011-0.77-0.011l-0.57,0.012
		c-0.069,0-0.108-0.012-0.188-0.012c-0.524,0.002-1.021,0.011-1.55,0.011l-1.159-0.011c-0.115,0-0.288,0.019-0.369,0
		c0.032-0.061,0.435-0.582,0.501-0.678c0.022-0.033,0.041-0.051,0.065-0.083l0.947-1.267c0.047-0.061,0.08-0.108,0.126-0.17
		c0.022-0.033,0.039-0.052,0.062-0.084l0.323-0.43c-0.04-0.048-0.148-0.109-0.208-0.148c-0.076-0.048-0.149-0.091-0.219-0.139
		c-0.424-0.278-0.877-0.549-1.292-0.825c-0.488-0.325-1.027-0.647-1.519-0.971c-0.072-0.047-0.138-0.097-0.219-0.131l-0.163,0.222
		c-0.029,0.041-0.052,0.069-0.08,0.109c-0.025,0.036-0.053,0.07-0.081,0.108l-0.243,0.327c-0.029,0.04-0.05,0.071-0.079,0.109
		c-0.172,0.232-0.488,0.642-0.647,0.872l-0.484,0.655c-0.057,0.076-0.106,0.143-0.162,0.218l-1.618,2.186
		c-0.03,0.041-0.053,0.065-0.082,0.108c-0.027,0.04-0.053,0.07-0.08,0.108l-0.65,0.878c-0.031,0.04-0.057,0.068-0.084,0.108
		C10.045,17.971,10.025,18,9.996,18.04L8.94,19.462c-0.435,0.605-0.923,1.255-1.376,1.859c-0.03,0.039-0.052,0.069-0.08,0.109
		l-0.405,0.545C6.536,22.697,6,23.441,5.456,24.166l-1.13,1.526c-0.018,0.027-0.022,0.03-0.041,0.054
		c-0.017,0.021-0.023,0.033-0.039,0.056c-0.088,0.122-0.079,0.044-0.08,0.119l-0.084,0.011c0.081,0,0.117,0.011,0.2,0.011
		c1.511-0.008,3.039,0,4.553,0c0.502,0,0.35,0.08,0.603-0.26l1.468-2.002c0.061-0.085,0.123-0.162,0.182-0.249l1.836-2.507h9.202
		v4.902C22.126,25.894,22.115,25.929,22.147,25.963"/>
	<path fill-rule="evenodd" clip-rule="evenodd" fill="#99C22F" d="M14.527,11.921c0.081,0.034,0.148,0.084,0.22,0.131
		c0.491,0.324,1.03,0.647,1.517,0.971c0.416,0.275,0.868,0.547,1.293,0.825c0.07,0.047,0.142,0.091,0.219,0.139
		c0.06,0.039,0.168,0.1,0.208,0.149c0.222-0.278,0.547-0.739,0.772-1.038l0.387-0.519c0.01-0.015,0.018-0.029,0.03-0.044
		l0.491-0.658c0.024-0.033,0.039-0.053,0.063-0.084l0.131-0.177c0.023-0.032,0.043-0.058,0.066-0.09l2.166-2.914
		c0.018-0.022,0.016-0.03,0.046-0.038c0,2.418-0.009,4.855,0.001,7.272c0,0.058-0.008,0.075-0.011,0.117
		c-0.003,0.053,0.009,0.061,0.011,0.115c0.004,0.122,0.01,0.736-0.011,0.78l3.091,2.021c0.174,0.114,0.342,0.221,0.517,0.336
		c0.088,0.059,0.168,0.111,0.254,0.167l0.16,0.105c0.135,0.101,0.025,0.02,0.099,0.046V2.08c0-0.155,0.019-0.43-0.011-0.557h-3.878
		c-0.157,0-0.076-0.073-0.237,0.142c-0.566,0.751-1.125,1.529-1.69,2.283c-0.022,0.029-0.037,0.048-0.059,0.078l-1.75,2.361
		C18.539,6.5,18.464,6.602,18.38,6.714l-0.36,0.483c-0.044,0.059-0.081,0.108-0.12,0.165l-0.485,0.652
		c-0.162,0.217-0.318,0.429-0.481,0.649l-2.051,2.765C14.838,11.489,14.536,11.887,14.527,11.921"/>
	<path fill-rule="evenodd" clip-rule="evenodd" fill="#2A3576" d="M69.057,19.201c0.002-0.023-0.006-0.058,0.003-0.075
		C69.057,19.15,69.066,19.184,69.057,19.201"/>
	<path fill-rule="evenodd" clip-rule="evenodd" fill="#2A3576" d="M69.057,18.822c0.009,0.017,0.001,0.051,0.004,0.074
		C69.052,18.88,69.06,18.845,69.057,18.822"/>
	<path fill-rule="evenodd" clip-rule="evenodd" fill="#020204" d="M70.804,10.798L70.804,10.798
		c-0.551-0.536-1.212-0.994-1.984-1.335c-0.775-0.338-1.669-0.579-2.741-0.579c-2.151-0.003-3.628,0.855-4.76,1.888
		c-0.032,0.026-0.06,0.053-0.085,0.085c-0.022,0.016-0.04,0.034-0.055,0.055c-0.031,0.026-0.059,0.055-0.085,0.085
		c-0.53,0.555-0.999,1.214-1.328,1.991c-0.333,0.785-0.573,1.662-0.574,2.752c-0.003,1.084,0.234,1.976,0.567,2.753
		c0.331,0.775,0.81,1.433,1.335,1.99c0.028,0.033,0.058,0.063,0.09,0.09c0,0.007,0.006,0.01,0.012,0.013
		c0.027,0.032,0.058,0.062,0.091,0.091c0.558,0.529,1.213,1.012,1.991,1.346c0.781,0.335,1.676,0.573,2.765,0.575
		c1.087,0.001,1.979-0.234,2.759-0.573c0.778-0.339,1.446-0.804,2-1.341c0.06-0.055,0.118-0.111,0.172-0.171
		c0.539-0.549,1.002-1.215,1.345-1.991c0.343-0.774,0.585-1.664,0.587-2.752c0.002-2.163-0.863-3.638-1.901-4.772
		c-0.028-0.031-0.059-0.062-0.092-0.09c0-0.004,0-0.008-0.005-0.007C70.876,10.864,70.841,10.829,70.804,10.798 M65.859,5.656h0.401
		c0.018,0.014,0.063,0.003,0.091,0.007c3.029,0.137,5.037,1.291,6.686,2.804c0.025,0.029,0.052,0.056,0.08,0.079
		c0.043,0.049,0.09,0.096,0.138,0.14c0.03,0.036,0.064,0.068,0.097,0.097c1.509,1.656,2.656,3.668,2.781,6.701
		c0.005,0.034-0.008,0.085,0.006,0.108v0.341c-0.015,0.024-0.003,0.076-0.008,0.11c-0.134,3.051-1.298,5.068-2.828,6.722
		c-0.029,0.025-0.054,0.05-0.079,0.079c-0.039,0.035-0.075,0.07-0.109,0.111c-0.03,0.025-0.058,0.053-0.085,0.083
		c-1.656,1.517-3.673,2.672-6.713,2.8c-0.035,0.004-0.084-0.009-0.108,0.004h-0.353c-0.022-0.014-0.071-0.002-0.103-0.006
		c-3.04-0.134-5.054-1.292-6.705-2.81c-0.025-0.03-0.05-0.057-0.079-0.079c-0.007-0.012-0.018-0.023-0.031-0.032
		c-0.019-0.023-0.041-0.046-0.067-0.065c-0.012-0.019-0.029-0.035-0.048-0.05c-0.023-0.028-0.05-0.054-0.078-0.078
		c-1.509-1.653-2.658-3.665-2.787-6.695c-0.003-0.028,0.008-0.072-0.004-0.091v-0.402c0.013-0.017,0.001-0.061,0.005-0.09
		c0.137-3.021,1.285-5.027,2.793-6.674c0.027-0.024,0.054-0.051,0.078-0.079c0.017-0.013,0.032-0.026,0.043-0.043
		c0.03-0.025,0.06-0.054,0.085-0.085c0.017-0.011,0.03-0.025,0.043-0.042c0.032-0.028,0.063-0.058,0.091-0.091
		c1.652-1.498,3.658-2.64,6.676-2.769C65.796,5.657,65.84,5.67,65.859,5.656"/>
	<path fill-rule="evenodd" clip-rule="evenodd" fill="#999899" d="M66.5,11.673L66.5,11.673c0.001,0.094-0.009,0.204,0.013,0.28
		c0.026,0.09,0.144,0.192,0.235,0.231c0.091,0.038,0.301,0.088,0.403,0.085c0.09-0.003,0.206-0.038,0.255-0.083
		c0.049-0.048,0.084-0.169,0.127-0.257c0.268-0.53,0.507-1.014,0.774-1.542c0.039-0.077,0.115-0.193,0.117-0.274
		c0-0.109-0.088-0.224-0.17-0.267c-0.096-0.05-0.264-0.07-0.384-0.098c-0.261-0.058-0.541-0.119-0.79-0.177
		c-0.129-0.03-0.277-0.079-0.407-0.079c-0.102,0-0.18,0.11-0.225,0.186C66.456,10.363,66.496,10.992,66.5,11.673 M66.663,9.443
		c0.114-0.018,0.312,0.046,0.432,0.074c0.261,0.06,0.544,0.122,0.813,0.182c0.149,0.034,0.29,0.056,0.382,0.111
		c0.107,0.061,0.205,0.186,0.189,0.335c-0.009,0.077-0.082,0.188-0.122,0.266c-0.262,0.519-0.514,1.027-0.78,1.555
		c-0.043,0.084-0.076,0.205-0.128,0.256c-0.06,0.058-0.188,0.098-0.293,0.101c-0.122,0.006-0.372-0.056-0.461-0.103
		c-0.094-0.05-0.209-0.162-0.236-0.262c-0.024-0.088-0.01-0.186-0.013-0.279c-0.009-0.451-0.016-1.004-0.033-1.429
		c-0.004-0.091-0.011-0.178-0.012-0.297c-0.002-0.097-0.027-0.214-0.006-0.291C66.419,9.568,66.545,9.461,66.663,9.443"/>
	<path fill-rule="evenodd" clip-rule="evenodd" fill="#3963AB" d="M66.449,9.679c0.044-0.076,0.122-0.187,0.225-0.187
		c0.129,0,0.275,0.049,0.407,0.078c0.249,0.059,0.53,0.119,0.79,0.177c0.12,0.029,0.287,0.049,0.382,0.099
		c0.084,0.043,0.172,0.158,0.172,0.268c-0.002,0.081-0.079,0.195-0.118,0.274c-0.266,0.528-0.506,1.01-0.774,1.541
		c-0.042,0.087-0.078,0.208-0.126,0.255c-0.049,0.047-0.166,0.082-0.257,0.085c-0.1,0.002-0.311-0.048-0.401-0.086
		c-0.093-0.038-0.209-0.139-0.237-0.232c-0.021-0.073-0.01-0.185-0.011-0.278C66.495,10.992,66.456,10.363,66.449,9.679"/>
	<path fill-rule="evenodd" clip-rule="evenodd" fill="#999899" d="M65.397,10.62c0.014,0.009,0.001,0.042,0.005,0.062
		C65.39,10.672,65.4,10.639,65.397,10.62"/>
	<path fill-rule="evenodd" clip-rule="evenodd" fill="#999899" d="M62.299,14.055L62.299,14.055
		c0.096,0.027,0.207,0.074,0.287,0.073c0.097,0,0.222-0.077,0.279-0.133c0.036-0.034,0.076-0.111,0.115-0.175
		c0.069-0.114,0.181-0.283,0.11-0.462c-0.019-0.053-0.142-0.153-0.2-0.207c-0.434-0.407-0.841-0.804-1.267-1.194
		c-0.067-0.059-0.145-0.166-0.219-0.194c-0.218-0.083-0.353,0.091-0.432,0.225c-0.212,0.351-0.418,0.726-0.627,1.08
		c-0.04,0.065-0.095,0.134-0.099,0.189c-0.008,0.118,0.066,0.207,0.122,0.26C61.005,13.687,61.662,13.879,62.299,14.055
		 M60.35,13.566c-0.081-0.056-0.172-0.163-0.158-0.316c0.006-0.066,0.055-0.135,0.098-0.207c0.183-0.308,0.366-0.627,0.548-0.941
		c0.104-0.181,0.2-0.404,0.455-0.412c0.172-0.005,0.254,0.12,0.359,0.22c0.425,0.404,0.846,0.783,1.276,1.205
		c0.064,0.062,0.178,0.144,0.206,0.206c0.08,0.183-0.02,0.385-0.092,0.51c-0.053,0.089-0.092,0.167-0.159,0.224
		c-0.063,0.056-0.196,0.127-0.298,0.127c-0.081,0.002-0.192-0.046-0.286-0.072C61.651,13.931,60.988,13.746,60.35,13.566"/>
	<path fill-rule="evenodd" clip-rule="evenodd" fill="#3963AB" d="M60.368,13.518c-0.056-0.053-0.13-0.143-0.121-0.261
		c0.004-0.055,0.059-0.122,0.098-0.188c0.207-0.355,0.415-0.729,0.627-1.081c0.079-0.133,0.214-0.307,0.432-0.225
		c0.072,0.029,0.152,0.135,0.217,0.195c0.429,0.391,0.835,0.787,1.269,1.192c0.059,0.055,0.18,0.156,0.201,0.208
		c0.068,0.18-0.044,0.347-0.11,0.461c-0.04,0.066-0.081,0.141-0.116,0.176c-0.057,0.057-0.181,0.132-0.28,0.133
		c-0.079,0-0.19-0.047-0.286-0.073C61.661,13.88,61.007,13.688,60.368,13.518"/>
	<path fill-rule="evenodd" clip-rule="evenodd" fill="#999899" d="M71.428,12.548c0.01,0.026,0.01,0.095,0,0.122V12.548"/>
	<path fill-rule="evenodd" clip-rule="evenodd" fill="#999899" d="M64.367,12.921c-0.02,0.01-0.08,0.01-0.098,0H64.367"/>
	<path fill-rule="evenodd" clip-rule="evenodd" fill="#020204" d="M65.763,13.786L65.763,13.786c-0.606,0.07-1.012,0.301-1.32,0.648
		c-0.281,0.32-0.55,0.778-0.511,1.464c0.03,0.547,0.301,1.022,0.641,1.326c0.359,0.318,0.823,0.544,1.464,0.512
		c0.57-0.027,1.026-0.308,1.325-0.643c0.323-0.358,0.546-0.816,0.519-1.458c-0.025-0.601-0.327-1.049-0.643-1.33
		c-0.337-0.303-0.787-0.553-1.463-0.519H65.763 M64.438,14.215c0.325-0.301,0.835-0.587,1.472-0.582
		c0.627,0.008,1.11,0.265,1.457,0.586c0.023,0.03,0.05,0.055,0.079,0.079c0.31,0.346,0.581,0.818,0.581,1.466
		c-0.001,0.648-0.274,1.118-0.585,1.464c-0.029,0.024-0.056,0.05-0.08,0.078c-0.345,0.311-0.817,0.583-1.465,0.581
		c-0.648-0.001-1.117-0.273-1.463-0.584c-0.024-0.029-0.051-0.056-0.08-0.079c-0.31-0.347-0.581-0.817-0.581-1.465
		c0.001-0.649,0.274-1.119,0.585-1.464C64.388,14.271,64.414,14.245,64.438,14.215"/>
	<path fill-rule="evenodd" clip-rule="evenodd" fill="#999899" d="M70.076,14.886L70.076,14.886c-0.09,0.034-0.2,0.055-0.261,0.097
		c-0.058,0.039-0.133,0.157-0.146,0.262c-0.015,0.11,0.018,0.343,0.053,0.424c0.028,0.065,0.114,0.17,0.17,0.189
		c0.033,0.011,0.089,0.007,0.139,0.013c0.613,0.067,1.197,0.141,1.799,0.209c0.093,0.009,0.208,0.039,0.286,0.024
		c0.082-0.016,0.185-0.121,0.207-0.22c0.026-0.11-0.009-0.264-0.023-0.387c-0.032-0.251-0.063-0.507-0.091-0.76
		c-0.011-0.1-0.018-0.304-0.047-0.371c-0.039-0.085-0.131-0.136-0.255-0.146c0-0.004-0.005-0.007-0.007,0
		C71.292,14.435,70.677,14.665,70.076,14.886 M71.882,14.171c0.111-0.018,0.277,0.065,0.327,0.177
		c0.041,0.089,0.033,0.239,0.049,0.377c0.028,0.259,0.064,0.513,0.096,0.778c0.014,0.126,0.05,0.285,0.024,0.395
		c-0.029,0.118-0.152,0.246-0.274,0.262c-0.078,0.009-0.177-0.02-0.274-0.032c-0.56-0.068-1.132-0.132-1.683-0.19
		c-0.092-0.01-0.198-0.011-0.273-0.038c-0.075-0.026-0.177-0.138-0.206-0.231c-0.088-0.279-0.072-0.607,0.128-0.735
		c0.068-0.043,0.18-0.067,0.262-0.096c0.441-0.159,0.861-0.313,1.296-0.473c0.171-0.063,0.338-0.139,0.515-0.188
		C71.872,14.177,71.877,14.172,71.882,14.171"/>
	<path fill-rule="evenodd" clip-rule="evenodd" fill="#3963AB" d="M71.9,14.22c0.001-0.006,0.005-0.004,0.005,0
		c0.126,0.011,0.218,0.06,0.256,0.146c0.029,0.068,0.037,0.271,0.048,0.372c0.028,0.252,0.059,0.507,0.091,0.759
		c0.014,0.123,0.049,0.278,0.023,0.389c-0.021,0.097-0.126,0.203-0.207,0.218c-0.078,0.015-0.192-0.014-0.286-0.025
		c-0.602-0.067-1.186-0.143-1.799-0.208c-0.049-0.005-0.105-0.002-0.138-0.012c-0.056-0.02-0.142-0.124-0.171-0.19
		c-0.034-0.083-0.068-0.315-0.054-0.426c0.014-0.103,0.089-0.221,0.147-0.26c0.061-0.042,0.169-0.064,0.261-0.096
		C70.677,14.665,71.291,14.435,71.9,14.22"/>
	<path fill-rule="evenodd" clip-rule="evenodd" fill="#3963AB" d="M60.445,14.581h0.061C60.501,14.591,60.452,14.591,60.445,14.581"
		/>
	<path fill-rule="evenodd" clip-rule="evenodd" fill="#999899" d="M59.672,15.716c-0.004,0.019,0.007,0.053-0.005,0.06
		C59.671,15.758,59.658,15.725,59.672,15.716"/>
	<path fill-rule="evenodd" clip-rule="evenodd" fill="#999899" d="M62.91,15.727c0.014,0.008,0.003,0.043,0.006,0.061H62.91V15.727"
		/>
	<path fill-rule="evenodd" clip-rule="evenodd" fill="#3963AB" d="M62.91,15.788h0.006v0.067
		C62.903,15.844,62.914,15.808,62.91,15.788"/>
	<path fill-rule="evenodd" clip-rule="evenodd" fill="#999899" d="M59.666,15.838v0.08C59.656,15.904,59.656,15.851,59.666,15.838"
		/>
	<path fill-rule="evenodd" clip-rule="evenodd" fill="#999899" d="M62.917,15.896c0.014,0.012,0.002,0.048,0.005,0.067
		C62.91,15.954,62.92,15.917,62.917,15.896"/>
	<path fill-rule="evenodd" clip-rule="evenodd" fill="#3963AB" d="M59.659,16.014c0.004-0.021-0.007-0.057,0.007-0.067
		c-0.002,0.023-0.002,0.045-0.002,0.067H59.659"/>
	<path fill-rule="evenodd" clip-rule="evenodd" fill="#999899" d="M62.844,15.981c0.014,0.01,0.001,0.046,0.005,0.068h-0.005V15.981
		"/>
	<path fill-rule="evenodd" clip-rule="evenodd" fill="#999899" d="M59.659,16.014h0.005v0.067
		C59.652,16.071,59.663,16.035,59.659,16.014"/>
	<path fill-rule="evenodd" clip-rule="evenodd" fill="#CDCCCD" d="M62.844,16.049h0.005v0.067
		C62.835,16.105,62.848,16.069,62.844,16.049"/>
	<path fill-rule="evenodd" clip-rule="evenodd" fill="#999899" d="M62.923,16.061c0.013,0.014,0.001,0.056,0.005,0.08h-0.005V16.061
		"/>
	<path fill-rule="evenodd" clip-rule="evenodd" fill="#3963AB" d="M62.923,16.14h0.005v0.06
		C62.914,16.192,62.925,16.159,62.923,16.14"/>
	<path fill-rule="evenodd" clip-rule="evenodd" fill="#999899" d="M62.849,16.164c0.014,0.01,0.002,0.046,0.005,0.067
		C62.842,16.221,62.853,16.185,62.849,16.164"/>
	<path fill-rule="evenodd" clip-rule="evenodd" fill="#999899" d="M60.502,17.546h0.08C60.569,17.556,60.514,17.556,60.502,17.546"
		/>
	<path fill-rule="evenodd" clip-rule="evenodd" fill="#999899" d="M71.901,17.823c0.014,0.008,0.001,0.042,0.005,0.061
		C71.893,17.876,71.904,17.841,71.901,17.823"/>
	<path fill-rule="evenodd" clip-rule="evenodd" fill="#3963AB" d="M62.962,17.872c0.114,0.037,0.173,0.114,0.255,0.212
		c0.082,0.098,0.218,0.237,0.147,0.439c-0.028,0.078-0.098,0.161-0.159,0.243c-0.338,0.456-0.665,0.913-1.005,1.396
		c-0.053,0.076-0.125,0.193-0.171,0.224c-0.054,0.037-0.191,0.051-0.26,0.024c-0.046-0.017-0.098-0.088-0.141-0.14
		c-0.201-0.241-0.428-0.496-0.63-0.742c-0.078-0.092-0.203-0.198-0.243-0.305c-0.041-0.106-0.006-0.252,0.049-0.315
		c0.045-0.049,0.161-0.093,0.249-0.14c0.515-0.272,0.993-0.521,1.514-0.794C62.701,17.903,62.796,17.819,62.962,17.872"/>
	<path fill-rule="evenodd" clip-rule="evenodd" fill="#999899" d="M68.535,18.135c-0.01-0.021-0.01-0.083,0-0.104V18.135"/>
	<path fill-rule="evenodd" clip-rule="evenodd" fill="#999899" d="M68.456,18.038v0.073C68.446,18.1,68.446,18.047,68.456,18.038"/>
	<path fill-rule="evenodd" clip-rule="evenodd" fill="#999899" d="M64.966,18.75c-0.024-0.004-0.064,0.007-0.079-0.005
		C64.911,18.747,64.951,18.735,64.966,18.75"/>
	<path fill-rule="evenodd" clip-rule="evenodd" fill="#999899" d="M67.232,19.142L67.232,19.142
		c-0.06,0.039-0.155,0.164-0.164,0.236c-0.004,0.043,0.01,0.099,0.017,0.146c0.107,0.63,0.203,1.258,0.309,1.878
		c0.017,0.1,0.022,0.213,0.055,0.286c0.031,0.077,0.133,0.149,0.242,0.158c0.159,0.015,0.308-0.097,0.425-0.146
		c0.228-0.092,0.487-0.204,0.718-0.301c0.113-0.049,0.279-0.086,0.353-0.157c0.037-0.038,0.095-0.143,0.079-0.25
		c-0.011-0.075-0.12-0.196-0.17-0.268c-0.348-0.492-0.709-0.981-1.032-1.446c-0.114-0.167-0.194-0.299-0.43-0.288
		C67.533,18.995,67.301,19.097,67.232,19.142 M67.387,21.7c-0.093-0.643-0.226-1.368-0.331-2.03
		c-0.016-0.097-0.052-0.224-0.043-0.303c0.014-0.105,0.122-0.233,0.22-0.292c0.078-0.047,0.222-0.11,0.322-0.134
		c0.115-0.024,0.284,0.006,0.37,0.069c0.063,0.044,0.127,0.157,0.183,0.237c0.344,0.488,0.685,0.946,1.03,1.447
		c0.059,0.084,0.173,0.191,0.183,0.305c0.024,0.305-0.242,0.361-0.456,0.454c-0.258,0.111-0.483,0.203-0.742,0.316
		c-0.118,0.05-0.27,0.132-0.389,0.137C67.583,21.917,67.47,21.817,67.387,21.7"/>
	<path fill-rule="evenodd" clip-rule="evenodd" fill="#3963AB" d="M67.634,18.99c0.235-0.011,0.316,0.121,0.431,0.288
		c0.322,0.465,0.681,0.954,1.031,1.446c0.051,0.072,0.16,0.193,0.169,0.268c0.017,0.107-0.04,0.211-0.08,0.25
		c-0.072,0.071-0.238,0.107-0.352,0.157c-0.232,0.098-0.49,0.21-0.717,0.302c-0.117,0.048-0.268,0.16-0.425,0.146
		c-0.11-0.01-0.21-0.082-0.243-0.159c-0.032-0.073-0.037-0.185-0.054-0.285c-0.107-0.621-0.202-1.249-0.308-1.879
		c-0.007-0.047-0.022-0.103-0.018-0.146c0.01-0.072,0.105-0.197,0.165-0.236C67.299,19.097,67.533,18.996,67.634,18.99"/>
	<path fill-rule="evenodd" clip-rule="evenodd" fill="#3963AB" d="M63.335,20.989c-0.004,0.02,0.007,0.053-0.005,0.061
		C63.333,21.032,63.321,20.999,63.335,20.989"/>
	<path fill-rule="evenodd" clip-rule="evenodd" fill="#999899" d="M65.266,21.988c-0.009,0.01-0.059,0.01-0.067,0H65.266"/>
	<path fill-rule="evenodd" clip-rule="evenodd" fill="#999899" d="M59.001,8.521c0.028-0.032,0.059-0.063,0.09-0.091
		C59.065,8.461,59.034,8.493,59.001,8.521"/>
	<path fill-rule="evenodd" clip-rule="evenodd" fill="#2A3576" d="M58.874,8.648c0.025-0.031,0.055-0.059,0.085-0.085
		C58.933,8.593,58.904,8.622,58.874,8.648"/>
	<path fill-rule="evenodd" clip-rule="evenodd" fill="#999899" d="M58.752,8.77c0.024-0.029,0.05-0.056,0.08-0.079
		C58.808,8.72,58.781,8.747,58.752,8.77"/>
	<path fill-rule="evenodd" clip-rule="evenodd" fill="#999899" d="M58.745,22.721c0.029,0.024,0.056,0.05,0.08,0.08
		C58.795,22.777,58.769,22.75,58.745,22.721"/>
	<path fill-rule="evenodd" clip-rule="evenodd" fill="#2A3576" d="M58.939,22.916c-0.025-0.019-0.047-0.042-0.067-0.067
		C58.897,22.869,58.919,22.891,58.939,22.916"/>
	<path fill-rule="evenodd" clip-rule="evenodd" fill="#999899" d="M58.97,22.946c0.029,0.024,0.054,0.05,0.079,0.08
		C59.02,23.002,58.994,22.976,58.97,22.946"/>
	<path fill-rule="evenodd" clip-rule="evenodd" fill="#999899" d="M73.03,23.038c0.027-0.031,0.055-0.059,0.086-0.085
		C73.09,22.984,73.061,23.014,73.03,23.038"/>
	<path fill-rule="evenodd" clip-rule="evenodd" fill="#999899" d="M73.225,22.844c0.025-0.029,0.05-0.056,0.079-0.079
		C73.281,22.794,73.253,22.821,73.225,22.844"/>
	<path fill-rule="evenodd" clip-rule="evenodd" fill="#999899" d="M73.257,8.686c0.035,0.029,0.066,0.062,0.096,0.098
		C73.318,8.752,73.286,8.721,73.257,8.686"/>
	<path fill-rule="evenodd" clip-rule="evenodd" fill="#999899" d="M73.038,8.466c0.029,0.025,0.055,0.051,0.079,0.08
		C73.088,8.522,73.062,8.495,73.038,8.466"/>
	<path fill-rule="evenodd" clip-rule="evenodd" fill="#999899" d="M61.234,10.857c0.025-0.03,0.055-0.059,0.085-0.085
		C61.293,10.804,61.266,10.831,61.234,10.857"/>
	<path fill-rule="evenodd" clip-rule="evenodd" fill="#999899" d="M61.094,10.997c0.026-0.03,0.054-0.059,0.085-0.084
		C61.153,10.942,61.124,10.971,61.094,10.997"/>
	<path fill-rule="evenodd" clip-rule="evenodd" fill="#999899" d="M61.094,20.482c0.032,0.028,0.062,0.059,0.09,0.091
		C61.152,20.544,61.122,20.516,61.094,20.482"/>
	<path fill-rule="evenodd" clip-rule="evenodd" fill="#999899" d="M61.197,20.585c0.032,0.028,0.063,0.059,0.091,0.09
		C61.256,20.647,61.225,20.617,61.197,20.585"/>
	<path fill-rule="evenodd" clip-rule="evenodd" fill="#999899" d="M70.803,20.684c0.055-0.059,0.112-0.116,0.172-0.17
		C70.919,20.574,70.862,20.628,70.803,20.684"/>
	<path fill-rule="evenodd" clip-rule="evenodd" fill="#999899" d="M70.914,10.907c0.034,0.028,0.062,0.059,0.092,0.091
		C70.973,10.97,70.942,10.938,70.914,10.907"/>
	<path fill-rule="evenodd" clip-rule="evenodd" fill="#999899" d="M70.805,10.797c0.036,0.032,0.071,0.066,0.103,0.104
		C70.87,10.868,70.837,10.833,70.805,10.797"/>
	<path fill-rule="evenodd" clip-rule="evenodd" fill="#999899" d="M71.178,13.131c0.02-0.025,0.042-0.047,0.067-0.067
		C71.225,13.089,71.203,13.112,71.178,13.131"/>
	<path fill-rule="evenodd" clip-rule="evenodd" fill="#2A3576" d="M64.359,14.295c0.024-0.029,0.05-0.056,0.08-0.079
		C64.415,14.245,64.388,14.271,64.359,14.295"/>
	<path fill-rule="evenodd" clip-rule="evenodd" fill="#2A3576" d="M64.355,17.223c0.029,0.024,0.056,0.051,0.079,0.08
		C64.405,17.279,64.378,17.252,64.355,17.223"/>
	<path fill-rule="evenodd" clip-rule="evenodd" fill="#2A3576" d="M67.363,17.306c0.023-0.029,0.05-0.056,0.079-0.08
		C67.419,17.257,67.392,17.283,67.363,17.306"/>
	<path fill-rule="evenodd" clip-rule="evenodd" fill="#2A3576" d="M67.366,14.22c0.029,0.024,0.056,0.051,0.08,0.08
		C67.416,14.275,67.39,14.249,67.366,14.22"/>
	<path fill-rule="evenodd" clip-rule="evenodd" fill="#999899" d="M62.928,16.243c0.011,0.013,0,0.057-0.005,0.073
		C62.918,16.285,62.928,16.269,62.928,16.243"/>
	<path fill-rule="evenodd" clip-rule="evenodd" fill="#3963AB" d="M69.056,18.895c-0.028-0.022-0.052-0.045-0.073-0.073
		C69.01,18.844,69.034,18.867,69.056,18.895"/>
	<path fill-rule="evenodd" clip-rule="evenodd" fill="#999899" d="M71.762,17.537c-0.026-0.021-0.052-0.045-0.073-0.072
		C71.716,17.486,71.74,17.511,71.762,17.537"/>
	<path fill-rule="evenodd" clip-rule="evenodd" fill="#CDCCCD" d="M70.774,19.857c0.017-0.018,0.044-0.057,0.06-0.054
		C70.81,19.818,70.798,19.843,70.774,19.857"/>
	<path fill-rule="evenodd" clip-rule="evenodd" fill="#999899" d="M62.567,17.975L62.567,17.975
		c-0.522,0.274-0.999,0.521-1.515,0.795c-0.086,0.045-0.205,0.089-0.249,0.139c-0.056,0.061-0.089,0.208-0.049,0.315
		c0.041,0.108,0.166,0.212,0.243,0.305c0.204,0.245,0.429,0.501,0.631,0.742c0.042,0.051,0.093,0.123,0.139,0.139
		c0.072,0.028,0.206,0.014,0.261-0.024c0.048-0.03,0.117-0.147,0.17-0.223c0.341-0.483,0.668-0.941,1.005-1.398
		c0.062-0.082,0.131-0.163,0.159-0.241c0.071-0.202-0.064-0.343-0.146-0.439c-0.082-0.097-0.141-0.176-0.255-0.211
		C62.795,17.819,62.703,17.903,62.567,17.975 M62.078,20.417c-0.068,0.057-0.223,0.08-0.322,0.042
		c-0.105-0.039-0.205-0.188-0.286-0.286c-0.177-0.216-0.334-0.405-0.521-0.62c-0.082-0.094-0.209-0.202-0.248-0.316
		c-0.05-0.148,0.015-0.306,0.079-0.384c0.569-0.29,1.182-0.623,1.764-0.927c0.083-0.043,0.178-0.106,0.261-0.127
		c0.062-0.015,0.203,0.024,0.262,0.056c0.087,0.047,0.242,0.225,0.296,0.316c0.051,0.083,0.087,0.253,0.049,0.377
		c-0.023,0.074-0.105,0.167-0.159,0.242C62.869,19.313,62.456,19.895,62.078,20.417"/>
	<path fill-rule="evenodd" clip-rule="evenodd" fill="#2A3576" d="M66.261,5.657c0.028,0.002,0.072-0.008,0.091,0.006
		C66.323,5.658,66.279,5.671,66.261,5.657"/>
	<path fill-rule="evenodd" clip-rule="evenodd" fill="#CDCCCD" d="M59.726,16.014v-0.09C59.737,15.94,59.737,15.997,59.726,16.014"
		/>
	<path fill-rule="evenodd" clip-rule="evenodd" fill="#CDCCCD" d="M59.726,16.044c0.014,0.022,0.001,0.071,0.005,0.104
		C59.718,16.125,59.73,16.076,59.726,16.044"/>
	<path fill-rule="evenodd" clip-rule="evenodd" fill="#CDCCCD" d="M65.406,21.988c0.029-0.014,0.084-0.001,0.122-0.005
		C65.498,21.997,65.444,21.986,65.406,21.988"/>
	<path fill-rule="evenodd" clip-rule="evenodd" fill="#CDCCCD" d="M67.734,21.907L67.734,21.907c0.12-0.007,0.27-0.089,0.388-0.139
		c0.259-0.113,0.484-0.205,0.742-0.315c0.215-0.092,0.481-0.148,0.456-0.455c-0.01-0.114-0.124-0.221-0.183-0.304
		c-0.344-0.501-0.686-0.96-1.03-1.448c-0.056-0.08-0.12-0.193-0.183-0.237c-0.086-0.061-0.255-0.093-0.37-0.067
		c-0.099,0.022-0.243,0.084-0.321,0.134c-0.099,0.058-0.206,0.186-0.22,0.291c-0.01,0.08,0.026,0.205,0.042,0.303
		c0.105,0.662,0.238,1.387,0.331,2.029C67.469,21.818,67.583,21.916,67.734,21.907 M64.888,18.744L64.888,18.744
		c-0.324,0.011-0.433,0.118-0.561,0.327c-0.293,0.482-0.564,0.926-0.846,1.384c-0.047,0.077-0.104,0.16-0.141,0.236
		c-0.111,0.25-0.08,0.585,0.067,0.76c0.095,0.115,0.314,0.209,0.468,0.293c0.159,0.088,0.347,0.141,0.54,0.195
		c0.205,0.058,0.412,0.092,0.619,0.103c0.207,0.015,0.474,0.029,0.681-0.021c0.263-0.068,0.462-0.311,0.486-0.62
		c0.007-0.075-0.009-0.191-0.017-0.286c-0.036-0.451-0.079-0.88-0.119-1.349c-0.016-0.185-0.01-0.385-0.06-0.523
		c-0.047-0.133-0.229-0.27-0.364-0.335c-0.093-0.044-0.212-0.06-0.328-0.084c-0.119-0.029-0.23-0.064-0.347-0.074
		C64.952,18.735,64.912,18.747,64.888,18.744 M63.253,18.79L63.253,18.79c0.054-0.075,0.135-0.169,0.157-0.243
		c0.039-0.124,0.002-0.294-0.048-0.376c-0.054-0.092-0.209-0.269-0.296-0.316c-0.059-0.033-0.2-0.071-0.262-0.057
		c-0.083,0.022-0.177,0.084-0.261,0.128c-0.581,0.304-1.195,0.637-1.764,0.927c-0.064,0.078-0.129,0.235-0.079,0.383
		c0.039,0.115,0.166,0.222,0.248,0.317c0.187,0.214,0.345,0.404,0.521,0.62c0.081,0.096,0.182,0.246,0.287,0.286
		c0.098,0.037,0.253,0.013,0.321-0.042C62.454,19.894,62.868,19.313,63.253,18.79 M71.689,17.464L71.689,17.464
		c-0.076-0.043-0.147-0.118-0.237-0.151c-0.073-0.027-0.166-0.036-0.256-0.056c-0.518-0.112-1.053-0.225-1.561-0.33
		c-0.14-0.029-0.286-0.072-0.418-0.03c-0.322,0.1-0.464,0.417-0.622,0.685c-0.074,0.129-0.141,0.28-0.139,0.455
		c-0.012,0.011-0.012,0.063,0,0.074c0.022,0.197,0.16,0.297,0.272,0.426c0.089,0.101,0.179,0.193,0.255,0.285
		c0.022,0.026,0.045,0.052,0.072,0.074c0.167,0.198,0.351,0.404,0.552,0.626c0.197,0.215,0.349,0.452,0.662,0.523
		c0.127,0.029,0.252,0.026,0.382-0.024c0.079-0.029,0.168-0.113,0.245-0.183c0.217-0.193,0.398-0.429,0.554-0.666
		c0.106-0.163,0.199-0.347,0.273-0.541c0.088-0.227,0.177-0.46,0.183-0.746c-0.003-0.02,0.009-0.054-0.006-0.061
		c-0.026-0.116-0.078-0.205-0.139-0.286C71.74,17.51,71.715,17.487,71.689,17.464 M60.445,14.582L60.445,14.582
		c-0.138-0.004-0.254,0.029-0.346,0.077c-0.223,0.113-0.301,0.32-0.36,0.596c-0.03,0.142-0.063,0.308-0.068,0.46
		c-0.012,0.009-0.001,0.044-0.005,0.062v0.062c-0.01,0.012-0.01,0.065,0,0.078v0.03c-0.014,0.01-0.003,0.046-0.007,0.068
		c0.004,0.021-0.007,0.055,0.005,0.066c0.002,0.216,0.031,0.434,0.08,0.639c0.103,0.444,0.231,0.822,0.759,0.827
		c0.01,0.009,0.065,0.009,0.077,0c0.198-0.034,0.371-0.115,0.565-0.182c0.422-0.146,0.85-0.297,1.265-0.447
		c0.088-0.032,0.186-0.058,0.249-0.098c0.164-0.102,0.222-0.305,0.262-0.503c0.007-0.017,0.018-0.06,0.007-0.074v-0.042v-0.06
		c-0.005-0.025,0.008-0.065-0.005-0.081v-0.096c-0.005-0.021,0.007-0.056-0.006-0.067v-0.042v-0.067
		c-0.004-0.019,0.006-0.053-0.007-0.061c-0.032-0.187-0.102-0.406-0.241-0.499c-0.119-0.077-0.329-0.12-0.499-0.17
		c-0.357-0.106-0.699-0.21-1.032-0.311c-0.218-0.067-0.41-0.131-0.631-0.165H60.445z M71.868,14.177L71.868,14.177
		c-0.177,0.049-0.344,0.125-0.516,0.188c-0.434,0.159-0.854,0.314-1.294,0.472c-0.083,0.03-0.195,0.054-0.261,0.097
		c-0.201,0.128-0.218,0.456-0.13,0.734c0.029,0.094,0.132,0.206,0.206,0.232c0.076,0.027,0.182,0.028,0.275,0.038
		c0.551,0.058,1.121,0.122,1.683,0.189c0.096,0.013,0.193,0.042,0.272,0.033c0.122-0.016,0.245-0.144,0.275-0.263
		c0.027-0.109-0.011-0.269-0.024-0.395c-0.031-0.264-0.069-0.518-0.097-0.777c-0.015-0.138-0.008-0.288-0.047-0.377
		c-0.052-0.112-0.218-0.195-0.329-0.177C71.875,14.172,71.871,14.177,71.868,14.177 M67.365,14.22L67.365,14.22
		c-0.345-0.322-0.828-0.578-1.456-0.585c-0.636-0.007-1.147,0.28-1.471,0.581c-0.03,0.024-0.056,0.05-0.08,0.079
		c-0.31,0.347-0.584,0.815-0.585,1.464c0,0.648,0.272,1.118,0.581,1.464c0.024,0.029,0.05,0.055,0.08,0.081
		c0.345,0.311,0.814,0.582,1.463,0.584c0.649,0.001,1.118-0.27,1.465-0.582c0.029-0.023,0.057-0.049,0.081-0.079
		c0.31-0.346,0.584-0.814,0.584-1.462c0-0.65-0.271-1.119-0.581-1.465C67.421,14.271,67.396,14.244,67.365,14.22 M62.299,14.11
		L62.299,14.11c0.095,0.026,0.204,0.074,0.284,0.073c0.104,0,0.236-0.072,0.299-0.128c0.067-0.057,0.105-0.135,0.159-0.224
		c0.074-0.125,0.173-0.329,0.091-0.51c-0.027-0.062-0.142-0.144-0.206-0.206c-0.429-0.423-0.85-0.802-1.275-1.207
		c-0.103-0.098-0.187-0.222-0.358-0.218c-0.256,0.008-0.351,0.231-0.456,0.412c-0.182,0.314-0.364,0.633-0.548,0.941
		c-0.042,0.072-0.093,0.14-0.098,0.207c-0.014,0.153,0.077,0.261,0.157,0.316C60.988,13.746,61.651,13.931,62.299,14.11
		 M71.428,12.549L71.428,12.549c-0.032-0.15-0.101-0.277-0.17-0.407c-0.064-0.122-0.124-0.237-0.2-0.342
		c-0.237-0.331-0.497-0.601-0.82-0.833c-0.111-0.082-0.238-0.171-0.357-0.219c-0.245-0.101-0.499,0-0.657,0.121
		c-0.126,0.096-0.173,0.203-0.256,0.346c-0.266,0.453-0.525,0.909-0.786,1.366c-0.068,0.123-0.166,0.242-0.164,0.394
		c0.006,0.335,0.209,0.509,0.376,0.7c0.078,0.088,0.156,0.188,0.237,0.248c0.097,0.074,0.255,0.158,0.388,0.16
		c0.12,0,0.216-0.057,0.323-0.104c0.403-0.18,0.813-0.364,1.21-0.533c0.216-0.092,0.463-0.187,0.626-0.315
		c0.024-0.019,0.046-0.042,0.067-0.067c0.091-0.101,0.159-0.225,0.183-0.394C71.438,12.644,71.438,12.575,71.428,12.549
		 M65.397,10.62L65.397,10.62c0.015-0.463-0.119-0.838-0.449-0.973c-0.12-0.048-0.27-0.04-0.413-0.024
		c-0.6,0.064-1.068,0.257-1.472,0.52c-0.142,0.093-0.348,0.226-0.443,0.358c-0.156,0.212-0.134,0.559-0.014,0.754
		c0.093,0.15,0.229,0.285,0.345,0.425c0.29,0.349,0.587,0.708,0.88,1.065c0.058,0.07,0.126,0.155,0.196,0.194
		c0.121,0.068,0.351,0.08,0.517,0.043c0.084-0.018,0.177-0.064,0.272-0.102c0.263-0.106,0.558-0.22,0.651-0.481
		c0.045-0.125,0.016-0.297,0.007-0.436c-0.03-0.442-0.052-0.873-0.072-1.281C65.398,10.662,65.411,10.627,65.397,10.62
		 M66.395,9.661L66.395,9.661c-0.02,0.078,0.004,0.194,0.007,0.292c0.001,0.119,0.006,0.207,0.011,0.297
		c0.017,0.425,0.024,0.978,0.034,1.429c0.002,0.093-0.012,0.191,0.012,0.28c0.027,0.1,0.142,0.21,0.237,0.26
		c0.087,0.048,0.339,0.109,0.461,0.105c0.103-0.004,0.232-0.045,0.292-0.103c0.053-0.051,0.086-0.172,0.128-0.256
		c0.266-0.526,0.518-1.035,0.779-1.554c0.04-0.079,0.114-0.19,0.123-0.267c0.015-0.146-0.083-0.272-0.188-0.335
		c-0.094-0.053-0.233-0.077-0.382-0.11c-0.271-0.06-0.552-0.121-0.814-0.183c-0.121-0.026-0.317-0.092-0.431-0.074
		C66.546,9.462,66.419,9.568,66.395,9.661 M61.319,10.772c1.132-1.034,2.609-1.892,4.761-1.889c1.072,0.001,1.964,0.242,2.739,0.581
		c0.773,0.34,1.433,0.798,1.985,1.333c0.033,0.037,0.066,0.072,0.104,0.104c0.004-0.002,0.005,0.002,0.005,0.007
		c0.028,0.031,0.059,0.062,0.092,0.09c1.038,1.133,1.903,2.608,1.901,4.772c0,1.088-0.245,1.977-0.587,2.753
		c-0.342,0.774-0.806,1.441-1.346,1.99c-0.058,0.055-0.115,0.112-0.17,0.171c-0.555,0.537-1.223,1.002-2.001,1.34
		c-0.78,0.339-1.672,0.575-2.76,0.574c-1.089-0.002-1.984-0.239-2.763-0.575c-0.778-0.334-1.435-0.817-1.992-1.347
		c-0.028-0.032-0.057-0.063-0.091-0.091c-0.005-0.002-0.011-0.005-0.012-0.012c-0.028-0.032-0.059-0.062-0.091-0.091
		c-0.524-0.558-1.002-1.214-1.334-1.988c-0.332-0.779-0.568-1.67-0.567-2.755c0.002-1.09,0.241-1.967,0.574-2.751
		c0.33-0.777,0.798-1.435,1.327-1.991c0.032-0.025,0.06-0.055,0.085-0.085c0.017-0.021,0.035-0.039,0.056-0.055
		C61.265,10.831,61.293,10.803,61.319,10.772"/>
	<path fill-rule="evenodd" clip-rule="evenodd" fill="#CDCCCD" d="M67.706,15.708c0.009,0.022,0.009,0.086,0,0.11V15.708"/>
	<path fill-rule="evenodd" clip-rule="evenodd" fill="#CDCCCD" d="M65.849,17.56h0.11C65.935,17.57,65.871,17.57,65.849,17.56"/>
	<path fill-rule="evenodd" clip-rule="evenodd" fill="#CDCCCD" d="M64.839,18.828c0.026-0.013,0.079-0.001,0.116-0.005
		C64.928,18.835,64.875,18.826,64.839,18.828"/>
	<path fill-rule="evenodd" clip-rule="evenodd" fill="#CDCCCD" d="M66.118,21.328c0.009,0.021,0.009,0.083,0,0.103V21.328"/>
	<path fill-rule="evenodd" clip-rule="evenodd" fill="#2A3576" d="M65.768,5.662c0.019-0.014,0.062-0.001,0.09-0.005
		C65.84,5.669,65.797,5.658,65.768,5.662"/>
	<path fill-rule="evenodd" clip-rule="evenodd" fill="#2A3576" d="M64.367,12.922L64.367,12.922
		c0.164,0.009,0.284-0.059,0.425-0.116c0.215-0.086,0.353-0.13,0.492-0.278c0.05-0.053,0.123-0.119,0.134-0.182
		c0.014-0.079-0.013-0.183-0.016-0.274c-0.027-0.431-0.049-0.91-0.073-1.324c-0.011-0.201-0.005-0.388-0.035-0.566
		c-0.044-0.254-0.232-0.47-0.479-0.505c-0.178-0.025-0.465,0.027-0.632,0.066c-0.42,0.098-0.767,0.25-1.089,0.455
		c-0.141,0.09-0.336,0.215-0.425,0.345c-0.112,0.16-0.12,0.446-0.02,0.631c0.083,0.155,0.226,0.286,0.34,0.427
		c0.295,0.366,0.569,0.699,0.868,1.058c0.118,0.144,0.177,0.258,0.412,0.263C64.287,12.931,64.347,12.931,64.367,12.922
		 M65.403,10.681c0.019,0.408,0.042,0.839,0.071,1.281c0.01,0.141,0.039,0.312-0.007,0.438c-0.092,0.259-0.387,0.373-0.651,0.479
		c-0.095,0.038-0.188,0.084-0.274,0.104c-0.164,0.036-0.394,0.023-0.515-0.044c-0.07-0.038-0.137-0.124-0.195-0.195
		c-0.293-0.355-0.591-0.716-0.881-1.064c-0.116-0.142-0.251-0.274-0.345-0.426c-0.12-0.196-0.142-0.539,0.014-0.753
		c0.095-0.131,0.301-0.266,0.443-0.358c0.404-0.263,0.872-0.458,1.471-0.522c0.145-0.015,0.294-0.023,0.414,0.026
		c0.331,0.135,0.463,0.511,0.45,0.972C65.4,10.638,65.388,10.673,65.403,10.681"/>
	<path fill-rule="evenodd" clip-rule="evenodd" fill="#2A3576" d="M68.925,11.433L68.925,11.433c-0.233,0.387-0.467,0.813-0.7,1.215
		c-0.057,0.098-0.117,0.179-0.128,0.255c-0.021,0.143,0.05,0.344,0.116,0.45c0.048,0.08,0.132,0.156,0.212,0.242
		c0.075,0.082,0.145,0.183,0.219,0.243c0.072,0.06,0.278,0.187,0.407,0.179c0.066-0.006,0.167-0.074,0.248-0.111
		c0.44-0.192,0.832-0.359,1.259-0.545c0.172-0.075,0.357-0.138,0.499-0.224c0.162-0.098,0.351-0.303,0.304-0.614
		c-0.013-0.083-0.078-0.192-0.121-0.286c-0.042-0.09-0.095-0.182-0.145-0.26c-0.277-0.435-0.584-0.76-1.007-1.04
		c-0.139-0.094-0.297-0.193-0.517-0.16C69.199,10.835,69.09,11.16,68.925,11.433 M71.178,13.131
		c-0.163,0.128-0.41,0.223-0.626,0.315c-0.395,0.169-0.807,0.353-1.209,0.533c-0.108,0.048-0.204,0.106-0.323,0.104
		c-0.134-0.002-0.293-0.086-0.389-0.16c-0.081-0.06-0.159-0.16-0.237-0.248c-0.167-0.191-0.371-0.365-0.376-0.7
		c-0.002-0.152,0.096-0.271,0.166-0.395c0.259-0.456,0.518-0.911,0.786-1.366c0.083-0.142,0.128-0.249,0.255-0.346
		c0.158-0.12,0.411-0.221,0.655-0.12c0.12,0.048,0.247,0.137,0.358,0.219c0.323,0.232,0.585,0.502,0.82,0.833
		c0.075,0.107,0.137,0.22,0.201,0.341c0.068,0.132,0.136,0.258,0.169,0.407v0.122c-0.022,0.169-0.092,0.293-0.183,0.394
		C71.22,13.084,71.198,13.106,71.178,13.131"/>
	<path fill-rule="evenodd" clip-rule="evenodd" fill="#3963AB" d="M67.705,15.708L67.705,15.708
		c-0.053-0.817-0.477-1.332-1.073-1.599c-0.331-0.147-0.761-0.192-1.136-0.104c-0.672,0.159-1.184,0.664-1.345,1.328
		c-0.091,0.38-0.039,0.816,0.103,1.137c0.257,0.588,0.784,1.051,1.596,1.09c0.022,0.01,0.086,0.01,0.109,0
		c0.541-0.021,0.936-0.235,1.222-0.522c0.284-0.284,0.502-0.678,0.524-1.219C67.714,15.795,67.714,15.731,67.705,15.708
		 M65.775,13.786c0.675-0.032,1.125,0.216,1.464,0.519c0.315,0.281,0.618,0.729,0.641,1.331c0.026,0.643-0.196,1.099-0.518,1.459
		c-0.3,0.334-0.755,0.614-1.325,0.641c-0.641,0.031-1.105-0.194-1.464-0.512c-0.341-0.303-0.612-0.778-0.643-1.326
		c-0.037-0.686,0.23-1.145,0.513-1.463c0.308-0.347,0.713-0.579,1.319-0.649H65.775"/>
	<path fill-rule="evenodd" clip-rule="evenodd" fill="#2A3576" d="M62.844,15.981L62.844,15.981c0-0.137-0.002-0.29-0.043-0.413
		c-0.027-0.083-0.108-0.251-0.169-0.291c-0.05-0.032-0.166-0.055-0.255-0.081c-0.45-0.132-0.873-0.262-1.3-0.389
		c-0.178-0.053-0.357-0.125-0.528-0.153c-0.307-0.049-0.556,0.104-0.644,0.273c-0.037,0.065-0.047,0.152-0.069,0.23
		c-0.065,0.241-0.105,0.474-0.109,0.765v0.091v0.031c0.004,0.033-0.009,0.08,0.005,0.104c0.008,0.208,0.04,0.396,0.078,0.57
		c0.069,0.313,0.154,0.589,0.4,0.706c0.266,0.126,0.583-0.005,0.821-0.102c0.176-0.071,0.364-0.126,0.541-0.187
		c0.274-0.097,0.538-0.182,0.809-0.286c0.092-0.034,0.205-0.062,0.261-0.103c0.13-0.092,0.192-0.324,0.213-0.515
		c-0.003-0.021,0.008-0.057-0.006-0.067v-0.048v-0.067C62.845,16.028,62.858,15.992,62.844,15.981 M59.672,15.716
		c0.006-0.153,0.036-0.319,0.067-0.461c0.06-0.278,0.138-0.484,0.359-0.596c0.095-0.047,0.21-0.081,0.346-0.078
		c0.008,0.01,0.056,0.01,0.061,0c0.224,0.035,0.417,0.098,0.632,0.165c0.335,0.101,0.676,0.206,1.034,0.311
		c0.169,0.05,0.38,0.093,0.497,0.171c0.141,0.092,0.211,0.312,0.242,0.498v0.061c0.005,0.019-0.008,0.056,0.006,0.067v0.042
		c0.005,0.021-0.007,0.057,0.007,0.069v0.095v0.08c0.003,0.018-0.008,0.052,0.004,0.06v0.043c0,0.025-0.008,0.042-0.005,0.073
		c-0.041,0.199-0.099,0.401-0.262,0.504c-0.065,0.041-0.161,0.065-0.25,0.097c-0.414,0.152-0.843,0.3-1.265,0.448
		c-0.193,0.067-0.366,0.148-0.564,0.182c-0.027,0-0.053,0-0.079-0.002c-0.526-0.003-0.654-0.381-0.759-0.827
		c-0.047-0.203-0.076-0.421-0.078-0.638v-0.067c0-0.022,0-0.043,0.002-0.066v-0.03v-0.079v-0.062
		C59.679,15.77,59.668,15.735,59.672,15.716"/>
	<path fill-rule="evenodd" clip-rule="evenodd" fill="#2A3576" d="M70.835,19.803L70.835,19.803c0.373-0.345,0.67-0.758,0.864-1.286
		c0.064-0.173,0.146-0.382,0.146-0.572c0.002-0.187-0.096-0.346-0.206-0.438c-0.173-0.144-0.457-0.174-0.723-0.231
		c-0.441-0.096-0.886-0.191-1.323-0.281c-0.094-0.02-0.201-0.054-0.274-0.05c-0.127,0.007-0.293,0.135-0.376,0.225
		c-0.07,0.072-0.129,0.193-0.19,0.297c-0.111,0.191-0.213,0.305-0.219,0.564c-0.011,0.021-0.011,0.084,0,0.105
		c-0.011,0.078,0.032,0.104,0.084,0.163c0.454,0.516,0.925,1.034,1.366,1.533c0.143,0.137,0.463,0.22,0.686,0.11
		c0.036-0.016,0.06-0.059,0.098-0.078c0.003,0,0.007-0.001,0.005-0.007C70.797,19.844,70.81,19.818,70.835,19.803 M68.456,18.038
		c0-0.174,0.065-0.328,0.141-0.456c0.156-0.269,0.298-0.585,0.62-0.686c0.132-0.041,0.281,0.002,0.419,0.031
		c0.507,0.106,1.043,0.218,1.561,0.33c0.09,0.02,0.183,0.03,0.255,0.054c0.092,0.035,0.163,0.109,0.237,0.154
		c0.022,0.027,0.047,0.052,0.074,0.073c0.06,0.082,0.111,0.171,0.139,0.286c0.003,0.018-0.008,0.052,0.006,0.061
		c-0.006,0.287-0.097,0.518-0.184,0.747c-0.074,0.192-0.168,0.378-0.273,0.539c-0.157,0.238-0.338,0.473-0.556,0.669
		c-0.075,0.068-0.166,0.153-0.242,0.182c-0.133,0.049-0.257,0.052-0.384,0.023c-0.313-0.07-0.465-0.307-0.661-0.524
		c-0.202-0.22-0.384-0.427-0.551-0.626c-0.022-0.026-0.048-0.051-0.074-0.074c-0.076-0.09-0.166-0.182-0.254-0.285
		c-0.112-0.128-0.249-0.228-0.273-0.425V18.038z"/>
	<path fill-rule="evenodd" clip-rule="evenodd" fill="#2A3576" d="M64.839,18.828L64.839,18.828
		c-0.106,0.014-0.226,0.022-0.305,0.072c-0.039,0.027-0.108,0.154-0.151,0.226c-0.246,0.408-0.482,0.794-0.719,1.184
		c-0.123,0.204-0.293,0.399-0.329,0.679c-0.015,0.01-0.004,0.044-0.006,0.061c0.014,0.358,0.258,0.471,0.509,0.597
		c0.372,0.188,0.876,0.339,1.36,0.342c0.009,0.011,0.059,0.011,0.067,0c0.057,0.013,0.097,0,0.14,0
		c0.039-0.003,0.093,0.01,0.121-0.006c0.364-0.014,0.556-0.23,0.591-0.552c0.01-0.019,0.01-0.082,0-0.103
		c0.009-0.179-0.023-0.371-0.042-0.578c-0.034-0.411-0.074-0.855-0.107-1.233c-0.008-0.086-0.003-0.181-0.024-0.243
		c-0.024-0.07-0.103-0.134-0.169-0.189c-0.21-0.166-0.522-0.201-0.822-0.262C64.917,18.827,64.865,18.814,64.839,18.828
		 M64.966,18.75c0.117,0.012,0.229,0.046,0.347,0.074c0.116,0.026,0.236,0.04,0.327,0.085c0.136,0.064,0.317,0.202,0.365,0.335
		c0.049,0.138,0.044,0.337,0.06,0.523c0.04,0.468,0.085,0.897,0.119,1.349c0.007,0.095,0.024,0.211,0.018,0.284
		c-0.025,0.311-0.224,0.554-0.486,0.621c-0.207,0.052-0.475,0.036-0.682,0.022c-0.208-0.011-0.414-0.046-0.619-0.103
		c-0.194-0.055-0.379-0.109-0.541-0.195c-0.153-0.083-0.372-0.179-0.467-0.293c-0.148-0.176-0.178-0.51-0.067-0.76
		c0.036-0.077,0.093-0.158,0.141-0.237c0.281-0.457,0.553-0.902,0.846-1.384c0.127-0.208,0.236-0.315,0.56-0.326
		C64.902,18.756,64.942,18.746,64.966,18.75"/>
</g>
</svg>
